<?xml version="1.0" encoding="UTF-8" standalone="no"?>
<!-- Created with Inkscape (http://www.inkscape.org/) -->

<svg
   width="82.549995mm"
   height="50.799999mm"
   viewBox="0 0 82.549995 50.799999"
   version="1.1"
   id="svg1"
   inkscape:version="1.3.2 (091e20e, 2023-11-25)"
   sodipodi:docname="fscore_no_detections_annotate2.svg"
   xmlns:inkscape="http://www.inkscape.org/namespaces/inkscape"
   xmlns:sodipodi="http://sodipodi.sourceforge.net/DTD/sodipodi-0.dtd"
   xmlns="http://www.w3.org/2000/svg"
   xmlns:svg="http://www.w3.org/2000/svg">
  <sodipodi:namedview
     id="namedview1"
     pagecolor="#ffffff"
     bordercolor="#000000"
     borderopacity="0.25"
     inkscape:showpageshadow="2"
     inkscape:pageopacity="0.0"
     inkscape:pagecheckerboard="0"
     inkscape:deskcolor="#d1d1d1"
     inkscape:document-units="mm"
     inkscape:zoom="0.80978535"
     inkscape:cx="395.78389"
     inkscape:cy="556.32026"
     inkscape:window-width="1920"
     inkscape:window-height="1052"
     inkscape:window-x="1728"
     inkscape:window-y="28"
     inkscape:window-maximized="0"
     inkscape:current-layer="layer1" />
  <defs
     id="defs1">
    <clipPath
       clipPathUnits="userSpaceOnUse"
       id="clipPath63">
      <path
         d="m 44.66,8.641 h 180.699 v 96.566 H 44.66 Z"
         transform="matrix(1.3333333,0,0,1.3333333,0,20.020533)"
         id="path63" />
    </clipPath>
    <clipPath
       clipPathUnits="userSpaceOnUse"
       id="clipPath61">
      <path
         d="M 0,0 H 235 V 144 H 0 Z"
         id="path61" />
    </clipPath>
    <clipPath
       clipPathUnits="userSpaceOnUse"
       id="clipPath72">
      <path
         d="m 44.66,8.641 h 180.699 v 96.566 H 44.66 Z"
         transform="matrix(1.3333333,0,0,1.3333333,0,20.020533)"
         id="path72" />
    </clipPath>
    <clipPath
       clipPathUnits="userSpaceOnUse"
       id="clipPath64">
      <path
         d="M 0,0 H 235 V 144 H 0 Z"
         id="path64" />
    </clipPath>
    <clipPath
       clipPathUnits="userSpaceOnUse"
       id="clipPath65">
      <path
         d="M 0,0 H 235 V 144 H 0 Z"
         id="path65" />
    </clipPath>
    <clipPath
       clipPathUnits="userSpaceOnUse"
       id="clipPath66">
      <path
         d="M 0,0 H 235 V 144 H 0 Z"
         id="path66" />
    </clipPath>
    <clipPath
       clipPathUnits="userSpaceOnUse"
       id="clipPath67">
      <path
         d="M 0,0 H 235 V 144 H 0 Z"
         id="path67" />
    </clipPath>
    <clipPath
       clipPathUnits="userSpaceOnUse"
       id="clipPath75">
      <path
         d="m 44.66,8.641 h 180.699 v 96.566 H 44.66 Z"
         transform="matrix(1.3333333,0,0,1.3333333,0,20.020533)"
         id="path75" />
    </clipPath>
    <clipPath
       clipPathUnits="userSpaceOnUse"
       id="clipPath73">
      <path
         d="M 0,0 H 235 V 144 H 0 Z"
         id="path73" />
    </clipPath>
    <clipPath
       clipPathUnits="userSpaceOnUse"
       id="clipPath84">
      <path
         d="m 44.66,8.641 h 180.699 v 96.566 H 44.66 Z"
         transform="matrix(1.3333333,0,0,1.3333333,0,20.020533)"
         id="path84" />
    </clipPath>
    <clipPath
       clipPathUnits="userSpaceOnUse"
       id="clipPath76">
      <path
         d="M 0,0 H 235 V 144 H 0 Z"
         id="path76" />
    </clipPath>
    <clipPath
       clipPathUnits="userSpaceOnUse"
       id="clipPath77">
      <path
         d="M 0,0 H 235 V 144 H 0 Z"
         id="path77" />
    </clipPath>
    <clipPath
       clipPathUnits="userSpaceOnUse"
       id="clipPath78">
      <path
         d="M 0,0 H 235 V 144 H 0 Z"
         id="path78" />
    </clipPath>
    <clipPath
       clipPathUnits="userSpaceOnUse"
       id="clipPath79">
      <path
         d="M 0,0 H 235 V 144 H 0 Z"
         id="path79" />
    </clipPath>
    <clipPath
       clipPathUnits="userSpaceOnUse"
       id="clipPath87">
      <path
         d="m 44.66,8.641 h 180.699 v 96.566 H 44.66 Z"
         transform="matrix(1.3333333,0,0,1.3333333,0,20.020533)"
         id="path87" />
    </clipPath>
    <clipPath
       clipPathUnits="userSpaceOnUse"
       id="clipPath85">
      <path
         d="M 0,0 H 235 V 144 H 0 Z"
         id="path85" />
    </clipPath>
    <clipPath
       clipPathUnits="userSpaceOnUse"
       id="clipPath96">
      <path
         d="m 44.66,8.641 h 180.699 v 96.566 H 44.66 Z"
         transform="matrix(1.3333333,0,0,1.3333333,0,20.020533)"
         id="path96" />
    </clipPath>
    <clipPath
       clipPathUnits="userSpaceOnUse"
       id="clipPath88">
      <path
         d="M 0,0 H 235 V 144 H 0 Z"
         id="path88" />
    </clipPath>
    <clipPath
       clipPathUnits="userSpaceOnUse"
       id="clipPath89">
      <path
         d="M 0,0 H 235 V 144 H 0 Z"
         id="path89" />
    </clipPath>
    <clipPath
       clipPathUnits="userSpaceOnUse"
       id="clipPath90">
      <path
         d="M 0,0 H 235 V 144 H 0 Z"
         id="path90" />
    </clipPath>
    <clipPath
       clipPathUnits="userSpaceOnUse"
       id="clipPath91">
      <path
         d="M 0,0 H 235 V 144 H 0 Z"
         id="path91" />
    </clipPath>
    <clipPath
       clipPathUnits="userSpaceOnUse"
       id="clipPath101">
      <path
         d="M 0,0 H 235 V 144 H 0 Z"
         id="path101" />
    </clipPath>
  </defs>
  <g
     inkscape:label="Layer 1"
     inkscape:groupmode="layer"
     id="layer1"
     transform="translate(-0.37844439,-1.1599622)">
    <g
       id="g2"
       transform="matrix(0.26458333,0,0,0.26458333,0.37844439,-4.1371371)">
      <path
         id="path1"
         d="M 0,0 H 234 V 144 H 0 Z"
         style="fill:#ffffff;fill-opacity:1;fill-rule:nonzero;stroke:none"
         transform="matrix(1.3333333,0,0,1.3333333,0,20.020533)" />
      <path
         id="path2"
         d="m 44.66,8.641 h 180.699 v 96.566 H 44.66 Z"
         style="fill:#ffffff;fill-opacity:1;fill-rule:nonzero;stroke:none"
         transform="matrix(1.3333333,0,0,1.3333333,0,20.020533)" />
      <path
         id="path3"
         d="m 58.418,105.207 v 3.5"
         style="fill:none;stroke:#000000;stroke-width:0.8;stroke-linecap:butt;stroke-linejoin:round;stroke-miterlimit:4;stroke-dasharray:none;stroke-opacity:1"
         transform="matrix(1.3333333,0,0,1.3333333,0,20.020533)" />
      <path
         id="path4"
         d="m 52.367,117.562 h 1.289 v -4.449 l -1.402,0.282 v -0.719 l 1.394,-0.281 h 0.79 v 5.167 h 1.289 v 0.665 h -3.36 z"
         style="fill:#000000;fill-opacity:1;fill-rule:nonzero;stroke:none"
         transform="matrix(1.3333333,0,0,1.3333333,0,20.020533)" />
      <path
         id="path5"
         d="m 59.008,112.914 c -0.406,0 -0.711,0.199 -0.914,0.598 -0.207,0.402 -0.309,1 -0.309,1.804 0,0.797 0.102,1.399 0.309,1.797 0.203,0.403 0.508,0.602 0.914,0.602 0.41,0 0.715,-0.199 0.922,-0.602 0.203,-0.398 0.304,-1 0.304,-1.797 0,-0.804 -0.101,-1.402 -0.304,-1.804 -0.207,-0.399 -0.512,-0.598 -0.922,-0.598 z m 0,-0.625 c 0.656,0 1.156,0.258 1.5,0.773 0.344,0.52 0.515,1.27 0.515,2.254 0,0.981 -0.171,1.731 -0.515,2.246 -0.344,0.52 -0.844,0.778 -1.5,0.778 -0.653,0 -1.153,-0.258 -1.496,-0.778 -0.344,-0.515 -0.52,-1.265 -0.52,-2.246 0,-0.984 0.176,-1.734 0.52,-2.254 0.343,-0.515 0.843,-0.773 1.496,-0.773 z"
         style="fill:#000000;fill-opacity:1;fill-rule:nonzero;stroke:none"
         transform="matrix(1.3333333,0,0,1.3333333,0,20.020533)" />
      <path
         id="path6"
         d="m 63.414,111.445 c -0.285,0 -0.5,0.141 -0.644,0.418 -0.141,0.282 -0.215,0.699 -0.215,1.262 0,0.559 0.074,0.98 0.215,1.262 0.144,0.277 0.359,0.418 0.644,0.418 0.285,0 0.5,-0.141 0.641,-0.418 0.144,-0.282 0.215,-0.703 0.215,-1.262 0,-0.563 -0.071,-0.98 -0.215,-1.262 -0.141,-0.277 -0.356,-0.418 -0.641,-0.418 z m 0,-0.437 c 0.457,0 0.805,0.18 1.047,0.543 0.242,0.359 0.363,0.887 0.363,1.574 0,0.687 -0.121,1.211 -0.363,1.574 -0.242,0.363 -0.59,0.543 -1.047,0.543 -0.461,0 -0.809,-0.18 -1.051,-0.543 C 62.121,114.336 62,113.812 62,113.125 c 0,-0.687 0.121,-1.215 0.363,-1.574 0.242,-0.363 0.59,-0.543 1.051,-0.543 z"
         style="fill:#000000;fill-opacity:1;fill-rule:nonzero;stroke:none"
         transform="matrix(1.3333333,0,0,1.3333333,0,20.020533)" />
      <path
         id="path7"
         d="m 200.363,105.207 v 3.5"
         style="fill:none;stroke:#000000;stroke-width:0.8;stroke-linecap:butt;stroke-linejoin:round;stroke-miterlimit:4;stroke-dasharray:none;stroke-opacity:1"
         transform="matrix(1.3333333,0,0,1.3333333,0,20.020533)" />
      <path
         id="path8"
         d="m 194.316,117.566 h 1.289 v -4.449 l -1.402,0.281 v -0.718 l 1.395,-0.282 h 0.789 v 5.168 h 1.289 v 0.664 h -3.36 z"
         style="fill:#000000;fill-opacity:1;fill-rule:nonzero;stroke:none"
         transform="matrix(1.3333333,0,0,1.3333333,0,20.020533)" />
      <path
         id="path9"
         d="m 200.957,112.918 c -0.406,0 -0.711,0.203 -0.918,0.602 -0.203,0.398 -0.305,1 -0.305,1.8 0,0.801 0.102,1.403 0.305,1.801 0.207,0.399 0.512,0.602 0.918,0.602 0.41,0 0.715,-0.203 0.918,-0.602 0.207,-0.398 0.309,-1 0.309,-1.801 0,-0.8 -0.102,-1.402 -0.309,-1.8 -0.203,-0.399 -0.508,-0.602 -0.918,-0.602 z m 0,-0.625 c 0.652,0 1.152,0.262 1.5,0.777 0.344,0.516 0.516,1.266 0.516,2.25 0,0.985 -0.172,1.735 -0.516,2.25 -0.348,0.516 -0.848,0.778 -1.5,0.778 -0.652,0 -1.152,-0.262 -1.496,-0.778 -0.348,-0.515 -0.52,-1.265 -0.52,-2.25 0,-0.984 0.172,-1.734 0.52,-2.25 0.344,-0.515 0.844,-0.777 1.496,-0.777 z"
         style="fill:#000000;fill-opacity:1;fill-rule:nonzero;stroke:none"
         transform="matrix(1.3333333,0,0,1.3333333,0,20.020533)" />
      <path
         id="path10"
         d="m 204.273,114.703 h 0.903 v -3.113 l -0.981,0.195 v -0.5 l 0.977,-0.199 h 0.551 v 3.617 h 0.902 v 0.465 h -2.352 z"
         style="fill:#000000;fill-opacity:1;fill-rule:nonzero;stroke:none"
         transform="matrix(1.3333333,0,0,1.3333333,0,20.020533)" />
      <path
         id="path11"
         d="m 44.66,105.207 v 2"
         style="fill:none;stroke:#000000;stroke-width:0.6;stroke-linecap:butt;stroke-linejoin:round;stroke-miterlimit:4;stroke-dasharray:none;stroke-opacity:1"
         transform="matrix(1.3333333,0,0,1.3333333,0,20.020533)" />
      <path
         id="path12"
         d="m 51.922,105.207 v 2"
         style="fill:none;stroke:#000000;stroke-width:0.6;stroke-linecap:butt;stroke-linejoin:round;stroke-miterlimit:4;stroke-dasharray:none;stroke-opacity:1"
         transform="matrix(1.3333333,0,0,1.3333333,0,20.020533)" />
      <path
         id="path13"
         d="m 101.148,105.207 v 2"
         style="fill:none;stroke:#000000;stroke-width:0.6;stroke-linecap:butt;stroke-linejoin:round;stroke-miterlimit:4;stroke-dasharray:none;stroke-opacity:1"
         transform="matrix(1.3333333,0,0,1.3333333,0,20.020533)" />
      <path
         id="path14"
         d="m 126.145,105.207 v 2"
         style="fill:none;stroke:#000000;stroke-width:0.6;stroke-linecap:butt;stroke-linejoin:round;stroke-miterlimit:4;stroke-dasharray:none;stroke-opacity:1"
         transform="matrix(1.3333333,0,0,1.3333333,0,20.020533)" />
      <path
         id="path15"
         d="m 143.879,105.207 v 2"
         style="fill:none;stroke:#000000;stroke-width:0.6;stroke-linecap:butt;stroke-linejoin:round;stroke-miterlimit:4;stroke-dasharray:none;stroke-opacity:1"
         transform="matrix(1.3333333,0,0,1.3333333,0,20.020533)" />
      <path
         id="path16"
         d="m 157.633,105.207 v 2"
         style="fill:none;stroke:#000000;stroke-width:0.6;stroke-linecap:butt;stroke-linejoin:round;stroke-miterlimit:4;stroke-dasharray:none;stroke-opacity:1"
         transform="matrix(1.3333333,0,0,1.3333333,0,20.020533)" />
      <path
         id="path17"
         d="m 168.875,105.207 v 2"
         style="fill:none;stroke:#000000;stroke-width:0.6;stroke-linecap:butt;stroke-linejoin:round;stroke-miterlimit:4;stroke-dasharray:none;stroke-opacity:1"
         transform="matrix(1.3333333,0,0,1.3333333,0,20.020533)" />
      <path
         id="path18"
         d="m 178.375,105.207 v 2"
         style="fill:none;stroke:#000000;stroke-width:0.6;stroke-linecap:butt;stroke-linejoin:round;stroke-miterlimit:4;stroke-dasharray:none;stroke-opacity:1"
         transform="matrix(1.3333333,0,0,1.3333333,0,20.020533)" />
      <path
         id="path19"
         d="m 186.609,105.207 v 2"
         style="fill:none;stroke:#000000;stroke-width:0.6;stroke-linecap:butt;stroke-linejoin:round;stroke-miterlimit:4;stroke-dasharray:none;stroke-opacity:1"
         transform="matrix(1.3333333,0,0,1.3333333,0,20.020533)" />
      <path
         id="path20"
         d="m 193.867,105.207 v 2"
         style="fill:none;stroke:#000000;stroke-width:0.6;stroke-linecap:butt;stroke-linejoin:round;stroke-miterlimit:4;stroke-dasharray:none;stroke-opacity:1"
         transform="matrix(1.3333333,0,0,1.3333333,0,20.020533)" />
      <path
         id="path21"
         d="m 109.031,114.316 v -2.367 h 0.719 v 6.078 h -0.719 v -0.656 c -0.152,0.262 -0.343,0.457 -0.574,0.582 -0.23,0.125 -0.504,0.192 -0.828,0.192 -0.527,0 -0.961,-0.211 -1.293,-0.633 -0.332,-0.422 -0.496,-0.981 -0.496,-1.668 0,-0.688 0.164,-1.242 0.496,-1.66 0.332,-0.422 0.766,-0.633 1.293,-0.633 0.324,0 0.598,0.062 0.828,0.187 0.231,0.125 0.422,0.321 0.574,0.578 z m -2.449,1.528 c 0,0.531 0.109,0.945 0.324,1.246 0.219,0.301 0.52,0.449 0.899,0.449 0.379,0 0.679,-0.148 0.898,-0.449 0.219,-0.301 0.328,-0.715 0.328,-1.246 0,-0.528 -0.109,-0.942 -0.328,-1.242 -0.219,-0.301 -0.519,-0.45 -0.898,-0.45 -0.379,0 -0.68,0.149 -0.899,0.45 -0.215,0.3 -0.324,0.714 -0.324,1.242 z"
         style="fill:#000000;fill-opacity:1;fill-rule:nonzero;stroke:none"
         transform="matrix(1.3333333,0,0,1.3333333,0,20.020533)" />
      <path
         id="path22"
         d="m 114.973,115.66 v 0.352 h -3.305 c 0.031,0.496 0.18,0.875 0.445,1.133 0.27,0.257 0.641,0.386 1.117,0.386 0.274,0 0.543,-0.031 0.801,-0.097 0.262,-0.071 0.52,-0.172 0.774,-0.309 v 0.684 c -0.258,0.105 -0.524,0.191 -0.793,0.25 -0.27,0.054 -0.547,0.086 -0.824,0.086 -0.7,0 -1.25,-0.204 -1.661,-0.61 -0.406,-0.406 -0.609,-0.957 -0.609,-1.652 0,-0.715 0.191,-1.281 0.578,-1.703 0.387,-0.422 0.91,-0.629 1.566,-0.629 0.59,0 1.055,0.187 1.395,0.566 0.344,0.379 0.516,0.895 0.516,1.543 z m -0.719,-0.211 c -0.004,-0.39 -0.113,-0.703 -0.332,-0.937 -0.215,-0.235 -0.496,-0.356 -0.852,-0.356 -0.402,0 -0.722,0.114 -0.961,0.34 -0.242,0.231 -0.382,0.547 -0.418,0.961 z"
         style="fill:#000000;fill-opacity:1;fill-rule:nonzero;stroke:none"
         transform="matrix(1.3333333,0,0,1.3333333,0,20.020533)" />
      <path
         id="path23"
         d="m 116.863,112.41 v 1.242 h 1.481 v 0.563 h -1.481 v 2.375 c 0,0.355 0.047,0.586 0.145,0.687 0.097,0.102 0.297,0.153 0.597,0.153 h 0.739 v 0.597 h -0.739 c -0.554,0 -0.937,-0.101 -1.148,-0.308 -0.211,-0.207 -0.316,-0.586 -0.316,-1.129 v -2.375 h -0.528 v -0.563 h 0.528 v -1.242 z"
         style="fill:#000000;fill-opacity:1;fill-rule:nonzero;stroke:none"
         transform="matrix(1.3333333,0,0,1.3333333,0,20.020533)" />
      <path
         id="path24"
         d="m 123.031,115.66 v 0.352 h -3.304 c 0.031,0.496 0.179,0.875 0.445,1.133 0.269,0.257 0.64,0.386 1.117,0.386 0.273,0 0.543,-0.031 0.801,-0.097 0.262,-0.071 0.519,-0.172 0.773,-0.309 v 0.684 c -0.258,0.105 -0.523,0.191 -0.793,0.25 -0.269,0.054 -0.547,0.086 -0.824,0.086 -0.699,0 -1.25,-0.204 -1.66,-0.61 -0.406,-0.406 -0.609,-0.957 -0.609,-1.652 0,-0.715 0.191,-1.281 0.578,-1.703 0.386,-0.422 0.91,-0.629 1.566,-0.629 0.59,0 1.055,0.187 1.395,0.566 0.343,0.379 0.515,0.895 0.515,1.543 z m -0.719,-0.211 c -0.003,-0.39 -0.113,-0.703 -0.332,-0.937 -0.214,-0.235 -0.496,-0.356 -0.851,-0.356 -0.402,0 -0.723,0.114 -0.961,0.34 -0.242,0.231 -0.383,0.547 -0.418,0.961 z"
         style="fill:#000000;fill-opacity:1;fill-rule:nonzero;stroke:none"
         transform="matrix(1.3333333,0,0,1.3333333,0,20.020533)" />
      <path
         id="path25"
         d="m 127.359,113.82 v 0.676 c -0.203,-0.113 -0.406,-0.199 -0.613,-0.254 -0.203,-0.054 -0.41,-0.086 -0.617,-0.086 -0.465,0 -0.828,0.149 -1.086,0.446 -0.258,0.296 -0.387,0.71 -0.387,1.242 0,0.535 0.129,0.949 0.387,1.246 0.258,0.297 0.621,0.441 1.086,0.441 0.207,0 0.414,-0.027 0.617,-0.082 0.207,-0.054 0.41,-0.14 0.613,-0.254 v 0.668 c -0.199,0.094 -0.41,0.16 -0.625,0.207 -0.214,0.051 -0.441,0.075 -0.683,0.075 -0.66,0 -1.184,-0.207 -1.571,-0.622 -0.39,-0.414 -0.582,-0.972 -0.582,-1.679 0,-0.711 0.196,-1.274 0.586,-1.68 0.395,-0.41 0.93,-0.613 1.614,-0.613 0.222,0 0.437,0.019 0.648,0.066 0.211,0.047 0.414,0.113 0.613,0.203 z"
         style="fill:#000000;fill-opacity:1;fill-rule:nonzero;stroke:none"
         transform="matrix(1.3333333,0,0,1.3333333,0,20.020533)" />
      <path
         id="path26"
         d="m 129.32,112.41 v 1.242 h 1.481 v 0.563 h -1.481 v 2.375 c 0,0.355 0.047,0.586 0.145,0.687 0.097,0.102 0.297,0.153 0.597,0.153 h 0.739 v 0.597 h -0.739 c -0.554,0 -0.937,-0.101 -1.148,-0.308 -0.211,-0.207 -0.316,-0.586 -0.316,-1.129 v -2.375 h -0.528 v -0.563 h 0.528 v -1.242 z"
         style="fill:#000000;fill-opacity:1;fill-rule:nonzero;stroke:none"
         transform="matrix(1.3333333,0,0,1.3333333,0,20.020533)" />
      <path
         id="path27"
         d="m 131.746,113.652 h 0.719 v 4.375 h -0.719 z m 0,-1.703 h 0.719 v 0.914 h -0.719 z"
         style="fill:#000000;fill-opacity:1;fill-rule:nonzero;stroke:none"
         transform="matrix(1.3333333,0,0,1.3333333,0,20.020533)" />
      <path
         id="path28"
         d="m 135.664,114.156 c -0.387,0 -0.691,0.153 -0.914,0.453 -0.227,0.301 -0.336,0.711 -0.336,1.235 0,0.523 0.109,0.937 0.332,1.238 0.223,0.301 0.531,0.449 0.918,0.449 0.383,0 0.688,-0.148 0.91,-0.449 0.223,-0.305 0.336,-0.715 0.336,-1.238 0,-0.516 -0.113,-0.926 -0.336,-1.231 -0.222,-0.304 -0.527,-0.457 -0.91,-0.457 z m 0,-0.605 c 0.625,0 1.113,0.203 1.473,0.609 0.355,0.406 0.535,0.969 0.535,1.684 0,0.718 -0.18,1.281 -0.535,1.687 -0.36,0.407 -0.848,0.614 -1.473,0.614 -0.629,0 -1.121,-0.207 -1.476,-0.614 -0.356,-0.406 -0.532,-0.969 -0.532,-1.687 0,-0.715 0.176,-1.278 0.532,-1.684 0.355,-0.406 0.847,-0.609 1.476,-0.609 z"
         style="fill:#000000;fill-opacity:1;fill-rule:nonzero;stroke:none"
         transform="matrix(1.3333333,0,0,1.3333333,0,20.020533)" />
      <path
         id="path29"
         d="m 142.5,115.387 v 2.64 h -0.719 v -2.617 c 0,-0.414 -0.082,-0.722 -0.242,-0.926 -0.16,-0.207 -0.402,-0.308 -0.727,-0.308 -0.386,0 -0.695,0.121 -0.917,0.371 -0.227,0.246 -0.336,0.582 -0.336,1.012 v 2.468 h -0.723 v -4.375 h 0.723 v 0.684 c 0.171,-0.266 0.375,-0.461 0.605,-0.59 0.234,-0.133 0.504,-0.195 0.809,-0.195 0.504,0 0.882,0.152 1.14,0.465 0.258,0.312 0.387,0.769 0.387,1.371 z"
         style="fill:#000000;fill-opacity:1;fill-rule:nonzero;stroke:none"
         transform="matrix(1.3333333,0,0,1.3333333,0,20.020533)" />
      <path
         id="path30"
         d="m 146.723,113.781 v 0.684 c -0.203,-0.106 -0.414,-0.184 -0.633,-0.235 -0.219,-0.054 -0.445,-0.078 -0.68,-0.078 -0.359,0 -0.625,0.055 -0.805,0.16 -0.175,0.11 -0.265,0.274 -0.265,0.497 0,0.164 0.062,0.296 0.191,0.39 0.125,0.094 0.383,0.184 0.77,0.27 l 0.246,0.058 c 0.512,0.106 0.871,0.262 1.086,0.461 0.215,0.2 0.324,0.477 0.324,0.832 0,0.407 -0.16,0.731 -0.484,0.969 -0.321,0.234 -0.762,0.356 -1.325,0.356 -0.234,0 -0.48,-0.024 -0.734,-0.071 -0.254,-0.047 -0.519,-0.113 -0.801,-0.203 v -0.746 c 0.266,0.141 0.528,0.242 0.785,0.313 0.258,0.07 0.512,0.101 0.766,0.101 0.34,0 0.598,-0.055 0.781,-0.172 0.18,-0.117 0.274,-0.281 0.274,-0.492 0,-0.191 -0.067,-0.344 -0.199,-0.445 -0.129,-0.106 -0.418,-0.207 -0.864,-0.305 l -0.25,-0.059 c -0.445,-0.089 -0.765,-0.234 -0.965,-0.429 -0.199,-0.196 -0.296,-0.461 -0.296,-0.797 0,-0.414 0.144,-0.731 0.437,-0.953 0.293,-0.227 0.707,-0.336 1.242,-0.336 0.266,0 0.516,0.019 0.75,0.058 0.235,0.036 0.449,0.094 0.649,0.172 z"
         style="fill:#000000;fill-opacity:1;fill-rule:nonzero;stroke:none"
         transform="matrix(1.3333333,0,0,1.3333333,0,20.020533)" />
      <path
         id="path31"
         d="m 149.379,112.195 h 0.664 l -2.031,6.578 h -0.664 z"
         style="fill:#000000;fill-opacity:1;fill-rule:nonzero;stroke:none"
         transform="matrix(1.3333333,0,0,1.3333333,0,20.020533)" />
      <path
         id="path32"
         d="m 151.492,117.371 v 2.32 h -0.722 v -6.039 h 0.722 v 0.664 c 0.153,-0.257 0.34,-0.453 0.57,-0.578 0.231,-0.125 0.508,-0.187 0.829,-0.187 0.531,0 0.961,0.211 1.293,0.633 0.336,0.418 0.5,0.972 0.5,1.66 0,0.687 -0.164,1.246 -0.5,1.668 -0.332,0.422 -0.762,0.633 -1.293,0.633 -0.321,0 -0.598,-0.067 -0.829,-0.192 -0.23,-0.125 -0.417,-0.32 -0.57,-0.582 z m 2.446,-1.527 c 0,-0.528 -0.11,-0.942 -0.325,-1.242 -0.218,-0.301 -0.519,-0.45 -0.898,-0.45 -0.379,0 -0.68,0.149 -0.899,0.45 -0.214,0.3 -0.324,0.714 -0.324,1.242 0,0.531 0.11,0.945 0.324,1.246 0.219,0.301 0.52,0.449 0.899,0.449 0.379,0 0.68,-0.148 0.898,-0.449 0.215,-0.301 0.325,-0.715 0.325,-1.246 z"
         style="fill:#000000;fill-opacity:1;fill-rule:nonzero;stroke:none"
         transform="matrix(1.3333333,0,0,1.3333333,0,20.020533)" />
      <path
         id="path33"
         d="m 155.875,113.652 h 0.719 v 4.375 h -0.719 z m 0,-1.703 h 0.719 v 0.914 h -0.719 z"
         style="fill:#000000;fill-opacity:1;fill-rule:nonzero;stroke:none"
         transform="matrix(1.3333333,0,0,1.3333333,0,20.020533)" />
      <path
         id="path34"
         d="m 161.734,113.652 -1.582,2.129 1.664,2.246 h -0.847 l -1.274,-1.718 -1.273,1.718 h -0.848 l 1.699,-2.285 -1.554,-2.09 h 0.847 l 1.161,1.563 1.16,-1.563 z"
         style="fill:#000000;fill-opacity:1;fill-rule:nonzero;stroke:none"
         transform="matrix(1.3333333,0,0,1.3333333,0,20.020533)" />
      <path
         id="path35"
         d="m 162.934,117.035 h 0.824 v 0.992 h -0.824 z"
         style="fill:#000000;fill-opacity:1;fill-rule:nonzero;stroke:none"
         transform="matrix(1.3333333,0,0,1.3333333,0,20.020533)" />
      <path
         id="path36"
         d="m 44.66,105.207 h -3.5"
         style="fill:none;stroke:#000000;stroke-width:0.8;stroke-linecap:butt;stroke-linejoin:round;stroke-miterlimit:4;stroke-dasharray:none;stroke-opacity:1"
         transform="matrix(1.3333333,0,0,1.3333333,0,20.020533)" />
      <path
         id="path37"
         d="m 22.391,102.934 c -0.407,0 -0.711,0.203 -0.918,0.601 -0.203,0.399 -0.305,1 -0.305,1.801 0,0.801 0.102,1.398 0.305,1.801 0.207,0.398 0.511,0.597 0.918,0.597 0.41,0 0.714,-0.199 0.918,-0.597 0.207,-0.403 0.308,-1 0.308,-1.801 0,-0.801 -0.101,-1.402 -0.308,-1.801 -0.204,-0.398 -0.508,-0.601 -0.918,-0.601 z m 0,-0.625 c 0.652,0 1.152,0.261 1.5,0.777 0.343,0.516 0.515,1.266 0.515,2.25 0,0.984 -0.172,1.734 -0.515,2.25 -0.348,0.516 -0.848,0.773 -1.5,0.773 -0.653,0 -1.153,-0.257 -1.5,-0.773 -0.344,-0.516 -0.516,-1.266 -0.516,-2.25 0,-0.984 0.172,-1.734 0.516,-2.25 0.347,-0.516 0.847,-0.777 1.5,-0.777 z"
         style="fill:#000000;fill-opacity:1;fill-rule:nonzero;stroke:none"
         transform="matrix(1.3333333,0,0,1.3333333,0,20.020533)" />
      <path
         id="path38"
         d="m 25.793,107.254 h 0.824 v 0.992 h -0.824 z"
         style="fill:#000000;fill-opacity:1;fill-rule:nonzero;stroke:none"
         transform="matrix(1.3333333,0,0,1.3333333,0,20.020533)" />
      <path
         id="path39"
         d="m 30.121,105.016 c -0.355,0 -0.633,0.121 -0.844,0.367 -0.203,0.238 -0.308,0.57 -0.308,0.992 0,0.422 0.105,0.754 0.308,0.996 0.211,0.242 0.489,0.363 0.844,0.363 0.356,0 0.637,-0.121 0.84,-0.363 0.207,-0.242 0.312,-0.574 0.312,-0.996 0,-0.422 -0.105,-0.754 -0.312,-0.992 -0.203,-0.246 -0.484,-0.367 -0.84,-0.367 z m 1.567,-2.473 v 0.719 c -0.2,-0.094 -0.399,-0.164 -0.602,-0.215 -0.199,-0.047 -0.398,-0.074 -0.598,-0.074 -0.519,0 -0.918,0.175 -1.195,0.527 -0.273,0.352 -0.43,0.883 -0.469,1.594 0.153,-0.227 0.344,-0.399 0.578,-0.52 0.231,-0.121 0.489,-0.183 0.766,-0.183 0.586,0 1.047,0.179 1.387,0.535 0.343,0.355 0.511,0.84 0.511,1.449 0,0.602 -0.175,1.082 -0.531,1.445 -0.355,0.36 -0.824,0.539 -1.414,0.539 -0.676,0 -1.191,-0.257 -1.547,-0.773 -0.355,-0.516 -0.535,-1.266 -0.535,-2.25 0,-0.922 0.219,-1.656 0.656,-2.203 0.438,-0.547 1.024,-0.824 1.762,-0.824 0.199,0 0.398,0.019 0.598,0.058 0.203,0.039 0.414,0.098 0.633,0.176 z"
         style="fill:#000000;fill-opacity:1;fill-rule:nonzero;stroke:none"
         transform="matrix(1.3333333,0,0,1.3333333,0,20.020533)" />
      <path
         id="path40"
         d="m 33.434,102.414 h 3.097 v 0.664 h -2.375 v 1.43 c 0.114,-0.039 0.227,-0.067 0.344,-0.086 0.113,-0.02 0.23,-0.031 0.344,-0.031 0.652,0 1.168,0.179 1.547,0.535 0.379,0.359 0.57,0.84 0.57,1.449 0,0.629 -0.195,1.117 -0.586,1.465 -0.391,0.348 -0.941,0.519 -1.652,0.519 -0.246,0 -0.496,-0.019 -0.75,-0.062 -0.254,-0.039 -0.516,-0.102 -0.785,-0.188 v -0.793 c 0.234,0.129 0.476,0.223 0.726,0.286 0.25,0.062 0.516,0.093 0.793,0.093 0.449,0 0.809,-0.117 1.07,-0.355 0.262,-0.235 0.395,-0.559 0.395,-0.965 0,-0.406 -0.133,-0.727 -0.395,-0.961 -0.261,-0.238 -0.621,-0.359 -1.07,-0.359 -0.211,0 -0.422,0.023 -0.633,0.07 -0.207,0.047 -0.422,0.121 -0.64,0.219 z"
         style="fill:#000000;fill-opacity:1;fill-rule:nonzero;stroke:none"
         transform="matrix(1.3333333,0,0,1.3333333,0,20.020533)" />
      <path
         id="path41"
         d="m 44.66,61.312 h -3.5"
         style="fill:none;stroke:#000000;stroke-width:0.8;stroke-linecap:butt;stroke-linejoin:round;stroke-miterlimit:4;stroke-dasharray:none;stroke-opacity:1"
         transform="matrix(1.3333333,0,0,1.3333333,0,20.020533)" />
      <path
         id="path42"
         d="m 22.391,59.039 c -0.407,0 -0.711,0.203 -0.918,0.602 -0.203,0.398 -0.305,1 -0.305,1.8 0,0.801 0.102,1.399 0.305,1.801 0.207,0.399 0.511,0.598 0.918,0.598 0.41,0 0.714,-0.199 0.918,-0.598 0.207,-0.402 0.308,-1 0.308,-1.801 0,-0.8 -0.101,-1.402 -0.308,-1.8 -0.204,-0.399 -0.508,-0.602 -0.918,-0.602 z m 0,-0.625 c 0.652,0 1.152,0.262 1.5,0.777 0.343,0.516 0.515,1.266 0.515,2.25 0,0.985 -0.172,1.735 -0.515,2.25 -0.348,0.516 -0.848,0.774 -1.5,0.774 -0.653,0 -1.153,-0.258 -1.5,-0.774 -0.344,-0.515 -0.516,-1.265 -0.516,-2.25 0,-0.984 0.172,-1.734 0.516,-2.25 0.347,-0.515 0.847,-0.777 1.5,-0.777 z"
         style="fill:#000000;fill-opacity:1;fill-rule:nonzero;stroke:none"
         transform="matrix(1.3333333,0,0,1.3333333,0,20.020533)" />
      <path
         id="path43"
         d="m 25.793,63.359 h 0.824 v 0.992 h -0.824 z"
         style="fill:#000000;fill-opacity:1;fill-rule:nonzero;stroke:none"
         transform="matrix(1.3333333,0,0,1.3333333,0,20.020533)" />
      <path
         id="path44"
         d="m 28.137,58.52 h 3.75 v 0.335 l -2.117,5.497 h -0.825 l 1.993,-5.168 h -2.801 z"
         style="fill:#000000;fill-opacity:1;fill-rule:nonzero;stroke:none"
         transform="matrix(1.3333333,0,0,1.3333333,0,20.020533)" />
      <path
         id="path45"
         d="m 35.113,59.039 c -0.406,0 -0.711,0.203 -0.918,0.602 -0.203,0.398 -0.304,1 -0.304,1.8 0,0.801 0.101,1.399 0.304,1.801 0.207,0.399 0.512,0.598 0.918,0.598 0.41,0 0.715,-0.199 0.918,-0.598 0.207,-0.402 0.309,-1 0.309,-1.801 0,-0.8 -0.102,-1.402 -0.309,-1.8 -0.203,-0.399 -0.508,-0.602 -0.918,-0.602 z m 0,-0.625 c 0.653,0 1.153,0.262 1.5,0.777 0.344,0.516 0.516,1.266 0.516,2.25 0,0.985 -0.172,1.735 -0.516,2.25 -0.347,0.516 -0.847,0.774 -1.5,0.774 -0.652,0 -1.152,-0.258 -1.5,-0.774 -0.343,-0.515 -0.515,-1.265 -0.515,-2.25 0,-0.984 0.172,-1.734 0.515,-2.25 0.348,-0.515 0.848,-0.777 1.5,-0.777 z"
         style="fill:#000000;fill-opacity:1;fill-rule:nonzero;stroke:none"
         transform="matrix(1.3333333,0,0,1.3333333,0,20.020533)" />
      <path
         id="path46"
         d="m 44.66,17.418 h -3.5"
         style="fill:none;stroke:#000000;stroke-width:0.8;stroke-linecap:butt;stroke-linejoin:round;stroke-miterlimit:4;stroke-dasharray:none;stroke-opacity:1"
         transform="matrix(1.3333333,0,0,1.3333333,0,20.020533)" />
      <path
         id="path47"
         d="m 22.391,15.145 c -0.407,0 -0.711,0.203 -0.918,0.601 -0.203,0.399 -0.305,1 -0.305,1.801 0,0.801 0.102,1.398 0.305,1.801 0.207,0.398 0.511,0.597 0.918,0.597 0.41,0 0.714,-0.199 0.918,-0.597 0.207,-0.403 0.308,-1 0.308,-1.801 0,-0.801 -0.101,-1.402 -0.308,-1.801 -0.204,-0.398 -0.508,-0.601 -0.918,-0.601 z m 0,-0.625 c 0.652,0 1.152,0.261 1.5,0.777 0.343,0.515 0.515,1.265 0.515,2.25 0,0.984 -0.172,1.734 -0.515,2.25 -0.348,0.515 -0.848,0.773 -1.5,0.773 -0.653,0 -1.153,-0.258 -1.5,-0.773 -0.344,-0.516 -0.516,-1.266 -0.516,-2.25 0,-0.985 0.172,-1.735 0.516,-2.25 0.347,-0.516 0.847,-0.777 1.5,-0.777 z"
         style="fill:#000000;fill-opacity:1;fill-rule:nonzero;stroke:none"
         transform="matrix(1.3333333,0,0,1.3333333,0,20.020533)" />
      <path
         id="path48"
         d="m 25.793,19.465 h 0.824 v 0.992 h -0.824 z"
         style="fill:#000000;fill-opacity:1;fill-rule:nonzero;stroke:none"
         transform="matrix(1.3333333,0,0,1.3333333,0,20.020533)" />
      <path
         id="path49"
         d="m 28.137,14.625 h 3.75 v 0.336 l -2.117,5.496 h -0.825 l 1.993,-5.168 h -2.801 z"
         style="fill:#000000;fill-opacity:1;fill-rule:nonzero;stroke:none"
         transform="matrix(1.3333333,0,0,1.3333333,0,20.020533)" />
      <path
         id="path50"
         d="m 33.434,14.625 h 3.097 v 0.664 h -2.375 v 1.43 c 0.114,-0.039 0.227,-0.067 0.344,-0.086 0.113,-0.02 0.23,-0.031 0.344,-0.031 0.652,0 1.168,0.179 1.547,0.535 0.379,0.359 0.57,0.84 0.57,1.449 0,0.629 -0.195,1.117 -0.586,1.465 -0.391,0.347 -0.941,0.519 -1.652,0.519 -0.246,0 -0.496,-0.019 -0.75,-0.062 -0.254,-0.039 -0.516,-0.102 -0.785,-0.188 v -0.793 c 0.234,0.129 0.476,0.223 0.726,0.285 0.25,0.063 0.516,0.094 0.793,0.094 0.449,0 0.809,-0.117 1.07,-0.355 0.262,-0.235 0.395,-0.559 0.395,-0.965 0,-0.406 -0.133,-0.727 -0.395,-0.961 -0.261,-0.238 -0.621,-0.359 -1.07,-0.359 -0.211,0 -0.422,0.023 -0.633,0.07 -0.207,0.047 -0.422,0.121 -0.64,0.219 z"
         style="fill:#000000;fill-opacity:1;fill-rule:nonzero;stroke:none"
         transform="matrix(1.3333333,0,0,1.3333333,0,20.020533)" />
      <path
         id="path51"
         d="m 8.887,76.402 c 0,0.571 0.215,1.028 0.64,1.364 0.426,0.339 1.008,0.507 1.746,0.507 0.735,0 1.317,-0.168 1.743,-0.507 0.425,-0.336 0.64,-0.793 0.64,-1.364 0,-0.574 -0.215,-1.027 -0.64,-1.363 -0.426,-0.336 -1.008,-0.5 -1.743,-0.5 -0.738,0 -1.32,0.164 -1.746,0.5 -0.425,0.336 -0.64,0.789 -0.64,1.363 z m -0.641,0 c 0,-0.82 0.274,-1.472 0.824,-1.961 0.547,-0.492 1.282,-0.734 2.203,-0.734 0.918,0 1.653,0.242 2.204,0.734 0.546,0.489 0.82,1.141 0.82,1.961 0,0.821 -0.274,1.473 -0.82,1.965 -0.547,0.492 -1.282,0.738 -2.204,0.738 -0.921,0 -1.656,-0.246 -2.203,-0.738 C 8.52,77.875 8.246,77.223 8.246,76.402 Z"
         style="fill:#000000;fill-opacity:1;fill-rule:nonzero;stroke:none"
         transform="matrix(1.3333333,0,0,1.3333333,0,20.020533)" />
      <path
         id="path52"
         d="m 8.352,71.684 h 5.832 v 0.789 H 8.352 Z"
         style="fill:#000000;fill-opacity:1;fill-rule:nonzero;stroke:none"
         transform="matrix(1.3333333,0,0,1.3333333,0,20.020533)" />
      <path
         id="path53"
         d="m 8.543,66.617 h 0.769 c -0.144,0.297 -0.25,0.582 -0.32,0.848 -0.07,0.265 -0.105,0.519 -0.105,0.769 0,0.43 0.082,0.758 0.25,0.993 0.168,0.234 0.402,0.351 0.711,0.351 0.257,0 0.453,-0.078 0.586,-0.234 0.128,-0.153 0.234,-0.449 0.316,-0.879 l 0.098,-0.477 c 0.113,-0.59 0.308,-1.023 0.593,-1.304 0.282,-0.278 0.661,-0.418 1.133,-0.418 0.567,0 0.992,0.187 1.285,0.566 0.293,0.379 0.438,0.934 0.438,1.668 0,0.273 -0.031,0.566 -0.094,0.879 -0.062,0.312 -0.156,0.633 -0.277,0.969 h -0.813 c 0.18,-0.321 0.317,-0.637 0.407,-0.942 0.089,-0.308 0.136,-0.609 0.136,-0.906 0,-0.453 -0.09,-0.801 -0.265,-1.043 -0.176,-0.246 -0.43,-0.367 -0.758,-0.367 -0.285,0 -0.512,0.086 -0.672,0.262 -0.16,0.175 -0.281,0.464 -0.363,0.867 l -0.094,0.48 c -0.117,0.586 -0.301,1.012 -0.551,1.278 -0.25,0.261 -0.598,0.394 -1.043,0.394 -0.515,0 -0.922,-0.183 -1.219,-0.547 -0.296,-0.363 -0.445,-0.863 -0.445,-1.5 0,-0.273 0.024,-0.554 0.074,-0.836 0.051,-0.285 0.125,-0.574 0.223,-0.871 z"
         style="fill:#000000;fill-opacity:1;fill-rule:nonzero;stroke:none"
         transform="matrix(1.3333333,0,0,1.3333333,0,20.020533)" />
      <path
         id="path54"
         d="m 8.352,62.492 v -3.351 h 0.664 v 2.562 h 1.718 v -2.312 h 0.664 v 2.312 h 2.786 v 0.789 z"
         style="fill:#000000;fill-opacity:1;fill-rule:nonzero;stroke:none"
         transform="matrix(1.3333333,0,0,1.3333333,0,20.020533)" />
      <path
         id="path55"
         d="m 11.672,56.18 h 0.641 v 2.105 h -0.641 z"
         style="fill:#000000;fill-opacity:1;fill-rule:nonzero;stroke:none"
         transform="matrix(1.3333333,0,0,1.3333333,0,20.020533)" />
      <path
         id="path56"
         d="m 9.938,52.246 h 0.679 c -0.105,0.203 -0.183,0.414 -0.234,0.633 -0.051,0.219 -0.078,0.445 -0.078,0.68 0,0.355 0.054,0.625 0.164,0.8 0.109,0.18 0.273,0.27 0.492,0.27 0.168,0 0.297,-0.067 0.394,-0.191 0.094,-0.129 0.184,-0.387 0.27,-0.77 l 0.055,-0.246 c 0.109,-0.512 0.261,-0.875 0.461,-1.09 0.199,-0.215 0.48,-0.32 0.836,-0.32 0.406,0 0.726,0.16 0.964,0.48 0.239,0.32 0.356,0.766 0.356,1.328 0,0.235 -0.024,0.477 -0.067,0.731 -0.046,0.254 -0.117,0.523 -0.207,0.804 h -0.742 c 0.137,-0.265 0.242,-0.527 0.313,-0.785 0.066,-0.258 0.101,-0.515 0.101,-0.765 0,-0.34 -0.058,-0.602 -0.175,-0.782 -0.114,-0.183 -0.278,-0.273 -0.489,-0.273 -0.195,0 -0.343,0.066 -0.449,0.195 -0.105,0.133 -0.203,0.422 -0.301,0.867 l -0.058,0.25 c -0.094,0.446 -0.239,0.766 -0.43,0.965 -0.195,0.196 -0.461,0.297 -0.801,0.297 -0.41,0 -0.73,-0.148 -0.953,-0.437 -0.223,-0.293 -0.336,-0.707 -0.336,-1.242 0,-0.266 0.02,-0.516 0.059,-0.75 0.039,-0.235 0.097,-0.454 0.176,-0.649 z"
         style="fill:#000000;fill-opacity:1;fill-rule:nonzero;stroke:none"
         transform="matrix(1.3333333,0,0,1.3333333,0,20.020533)" />
      <path
         id="path57"
         d="m 9.977,47.719 h 0.671 c -0.113,0.203 -0.195,0.406 -0.253,0.609 -0.055,0.203 -0.083,0.41 -0.083,0.621 0,0.465 0.149,0.828 0.446,1.086 0.293,0.258 0.707,0.387 1.242,0.387 0.535,0 0.949,-0.129 1.246,-0.387 0.293,-0.258 0.442,-0.621 0.442,-1.086 0,-0.211 -0.028,-0.418 -0.083,-0.621 -0.058,-0.203 -0.14,-0.406 -0.253,-0.609 h 0.664 c 0.093,0.199 0.164,0.406 0.211,0.621 0.046,0.215 0.07,0.445 0.07,0.687 0,0.657 -0.207,1.18 -0.621,1.571 -0.414,0.386 -0.973,0.582 -1.676,0.582 -0.715,0 -1.273,-0.196 -1.684,-0.59 -0.406,-0.391 -0.613,-0.93 -0.613,-1.61 0,-0.222 0.024,-0.437 0.07,-0.648 0.043,-0.211 0.114,-0.418 0.204,-0.613 z"
         style="fill:#000000;fill-opacity:1;fill-rule:nonzero;stroke:none"
         transform="matrix(1.3333333,0,0,1.3333333,0,20.020533)" />
      <path
         id="path58"
         d="m 10.312,44.773 c 0,0.383 0.153,0.688 0.454,0.915 0.3,0.222 0.711,0.335 1.234,0.335 0.523,0 0.934,-0.113 1.234,-0.335 0.301,-0.223 0.454,-0.528 0.454,-0.915 0,-0.382 -0.153,-0.687 -0.454,-0.91 -0.3,-0.226 -0.714,-0.336 -1.234,-0.336 -0.52,0 -0.93,0.11 -1.234,0.336 -0.301,0.223 -0.454,0.528 -0.454,0.91 z m -0.609,0 c 0,-0.625 0.203,-1.117 0.609,-1.472 0.407,-0.36 0.969,-0.535 1.688,-0.535 0.715,0 1.277,0.175 1.688,0.535 0.406,0.355 0.609,0.847 0.609,1.472 0,0.625 -0.203,1.118 -0.609,1.473 -0.411,0.356 -0.973,0.535 -1.688,0.535 -0.719,0 -1.281,-0.179 -1.688,-0.535 C 9.906,45.891 9.703,45.398 9.703,44.773 Z"
         style="fill:#000000;fill-opacity:1;fill-rule:nonzero;stroke:none"
         transform="matrix(1.3333333,0,0,1.3333333,0,20.020533)" />
      <path
         id="path59"
         d="m 10.48,39.039 c -0.046,0.078 -0.082,0.168 -0.101,0.262 -0.024,0.097 -0.035,0.199 -0.035,0.316 0,0.406 0.133,0.719 0.394,0.934 0.266,0.219 0.645,0.328 1.141,0.328 h 2.305 v 0.723 H 9.809 v -0.723 h 0.679 C 10.223,40.727 10.027,40.531 9.898,40.289 9.77,40.047 9.703,39.75 9.703,39.406 c 0,-0.051 0.004,-0.105 0.012,-0.164 0.004,-0.062 0.015,-0.129 0.027,-0.199 z"
         style="fill:#000000;fill-opacity:1;fill-rule:nonzero;stroke:none"
         transform="matrix(1.3333333,0,0,1.3333333,0,20.020533)" />
      <path
         id="path60"
         d="m 11.816,34.723 h 0.352 v 3.304 c 0.496,-0.031 0.871,-0.183 1.129,-0.449 0.262,-0.266 0.391,-0.637 0.391,-1.113 0,-0.277 -0.036,-0.543 -0.102,-0.805 -0.066,-0.258 -0.168,-0.515 -0.305,-0.769 h 0.68 c 0.109,0.257 0.191,0.519 0.25,0.793 0.059,0.269 0.086,0.543 0.086,0.824 0,0.695 -0.203,1.25 -0.609,1.656 -0.407,0.41 -0.958,0.613 -1.649,0.613 -0.715,0 -1.285,-0.195 -1.703,-0.582 -0.422,-0.386 -0.633,-0.906 -0.633,-1.562 0,-0.59 0.192,-1.055 0.57,-1.399 0.379,-0.339 0.891,-0.511 1.543,-0.511 z m -0.211,0.718 c -0.394,0.004 -0.707,0.114 -0.941,0.329 -0.234,0.214 -0.352,0.5 -0.352,0.855 0,0.398 0.114,0.719 0.34,0.961 0.227,0.242 0.547,0.379 0.957,0.418 z"
         style="fill:#000000;fill-opacity:1;fill-rule:nonzero;stroke:none"
         transform="matrix(1.3333333,0,0,1.3333333,0,20.020533)" />
      <g
         id="g62"
         clip-path="url(#clipPath63)">
        <path
           d="M 58.418,104.457 101.148,72.848 157.633,42.246 211.605,13.301 235,6.629"
           style="fill:none;stroke:#1f77b4;stroke-width:1;stroke-linecap:square;stroke-linejoin:round;stroke-miterlimit:4;stroke-dasharray:none;stroke-opacity:1"
           transform="matrix(1.3333333,0,0,1.3333333,0,20.020533)"
           clip-path="url(#clipPath61)"
           id="path62" />
      </g>
      <g
         id="g71"
         clip-path="url(#clipPath72)">
        <path
           d="m 58.418,106.457 2,-4 h -4 z"
           style="fill:#1f77b4;fill-opacity:1;fill-rule:nonzero;stroke:#1f77b4;stroke-width:1;stroke-linecap:butt;stroke-linejoin:miter;stroke-miterlimit:4;stroke-dasharray:none;stroke-opacity:1"
           transform="matrix(1.3333333,0,0,1.3333333,0,20.020533)"
           clip-path="url(#clipPath64)"
           id="path68" />
        <path
           d="m 101.148,74.848 2,-4 h -4 z"
           style="fill:#1f77b4;fill-opacity:1;fill-rule:nonzero;stroke:#1f77b4;stroke-width:1;stroke-linecap:butt;stroke-linejoin:miter;stroke-miterlimit:4;stroke-dasharray:none;stroke-opacity:1"
           transform="matrix(1.3333333,0,0,1.3333333,0,20.020533)"
           clip-path="url(#clipPath65)"
           id="path69" />
        <path
           d="m 157.633,44.246 2,-4 h -4 z"
           style="fill:#1f77b4;fill-opacity:1;fill-rule:nonzero;stroke:#1f77b4;stroke-width:1;stroke-linecap:butt;stroke-linejoin:miter;stroke-miterlimit:4;stroke-dasharray:none;stroke-opacity:1"
           transform="matrix(1.3333333,0,0,1.3333333,0,20.020533)"
           clip-path="url(#clipPath66)"
           id="path70" />
        <path
           d="m 211.605,15.301 2,-4 h -4 z"
           style="fill:#1f77b4;fill-opacity:1;fill-rule:nonzero;stroke:#1f77b4;stroke-width:1;stroke-linecap:butt;stroke-linejoin:miter;stroke-miterlimit:4;stroke-dasharray:none;stroke-opacity:1"
           transform="matrix(1.3333333,0,0,1.3333333,0,20.020533)"
           clip-path="url(#clipPath67)"
           id="path71" />
      </g>
      <g
         id="g74"
         clip-path="url(#clipPath75)">
        <path
           d="m 58.418,104.48 42.73,-27.355 56.485,-30 L 211.605,23.492 235,15.391"
           style="fill:none;stroke:#ff7f0e;stroke-width:1;stroke-linecap:square;stroke-linejoin:round;stroke-miterlimit:4;stroke-dasharray:none;stroke-opacity:1"
           transform="matrix(1.3333333,0,0,1.3333333,0,20.020533)"
           clip-path="url(#clipPath73)"
           id="path74" />
      </g>
      <g
         id="g83"
         clip-path="url(#clipPath84)">
        <path
           d="m 56.418,102.48 h 4 v 4 h -4 z"
           style="fill:#ff7f0e;fill-opacity:1;fill-rule:nonzero;stroke:#ff7f0e;stroke-width:1;stroke-linecap:butt;stroke-linejoin:miter;stroke-miterlimit:4;stroke-dasharray:none;stroke-opacity:1"
           transform="matrix(1.3333333,0,0,1.3333333,0,20.020533)"
           clip-path="url(#clipPath76)"
           id="path80" />
        <path
           d="m 99.148,75.125 h 4 v 4 h -4 z"
           style="fill:#ff7f0e;fill-opacity:1;fill-rule:nonzero;stroke:#ff7f0e;stroke-width:1;stroke-linecap:butt;stroke-linejoin:miter;stroke-miterlimit:4;stroke-dasharray:none;stroke-opacity:1"
           transform="matrix(1.3333333,0,0,1.3333333,0,20.020533)"
           clip-path="url(#clipPath77)"
           id="path81" />
        <path
           d="m 155.633,45.125 h 4 v 4 h -4 z"
           style="fill:#ff7f0e;fill-opacity:1;fill-rule:nonzero;stroke:#ff7f0e;stroke-width:1;stroke-linecap:butt;stroke-linejoin:miter;stroke-miterlimit:4;stroke-dasharray:none;stroke-opacity:1"
           transform="matrix(1.3333333,0,0,1.3333333,0,20.020533)"
           clip-path="url(#clipPath78)"
           id="path82" />
        <path
           d="m 209.605,21.492 h 4 v 4 h -4 z"
           style="fill:#ff7f0e;fill-opacity:1;fill-rule:nonzero;stroke:#ff7f0e;stroke-width:1;stroke-linecap:butt;stroke-linejoin:miter;stroke-miterlimit:4;stroke-dasharray:none;stroke-opacity:1"
           transform="matrix(1.3333333,0,0,1.3333333,0,20.020533)"
           clip-path="url(#clipPath79)"
           id="path83" />
      </g>
      <g
         id="g86"
         clip-path="url(#clipPath87)">
        <path
           d="M 58.418,97.738 101.148,61.09 157.633,32.629 211.605,14.184 235,7.84"
           style="fill:none;stroke:#2ca02c;stroke-width:1;stroke-linecap:square;stroke-linejoin:round;stroke-miterlimit:4;stroke-dasharray:none;stroke-opacity:1"
           transform="matrix(1.3333333,0,0,1.3333333,0,20.020533)"
           clip-path="url(#clipPath85)"
           id="path86" />
      </g>
      <g
         id="g95"
         clip-path="url(#clipPath96)">
        <path
           d="m 56.418,99.738 4,-4 m -4,0 4,4"
           style="fill:#2ca02c;fill-opacity:1;fill-rule:nonzero;stroke:#2ca02c;stroke-width:1;stroke-linecap:butt;stroke-linejoin:round;stroke-miterlimit:4;stroke-dasharray:none;stroke-opacity:1"
           transform="matrix(1.3333333,0,0,1.3333333,0,20.020533)"
           clip-path="url(#clipPath88)"
           id="path92" />
        <path
           d="m 99.148,63.09 4,-4 m -4,0 4,4"
           style="fill:#2ca02c;fill-opacity:1;fill-rule:nonzero;stroke:#2ca02c;stroke-width:1;stroke-linecap:butt;stroke-linejoin:round;stroke-miterlimit:4;stroke-dasharray:none;stroke-opacity:1"
           transform="matrix(1.3333333,0,0,1.3333333,0,20.020533)"
           clip-path="url(#clipPath89)"
           id="path93" />
        <path
           d="m 155.633,34.629 4,-4 m -4,0 4,4"
           style="fill:#2ca02c;fill-opacity:1;fill-rule:nonzero;stroke:#2ca02c;stroke-width:1;stroke-linecap:butt;stroke-linejoin:round;stroke-miterlimit:4;stroke-dasharray:none;stroke-opacity:1"
           transform="matrix(1.3333333,0,0,1.3333333,0,20.020533)"
           clip-path="url(#clipPath90)"
           id="path94" />
        <path
           d="m 209.605,16.184 4,-4 m -4,0 4,4"
           style="fill:#2ca02c;fill-opacity:1;fill-rule:nonzero;stroke:#2ca02c;stroke-width:1;stroke-linecap:butt;stroke-linejoin:round;stroke-miterlimit:4;stroke-dasharray:none;stroke-opacity:1"
           transform="matrix(1.3333333,0,0,1.3333333,0,20.020533)"
           clip-path="url(#clipPath91)"
           id="path95" />
      </g>
      <path
         id="path97"
         d="M 44.66,105.207 V 8.641"
         style="fill:none;stroke:#000000;stroke-width:0.8;stroke-linecap:square;stroke-linejoin:miter;stroke-miterlimit:4;stroke-dasharray:none;stroke-opacity:1"
         transform="matrix(1.3333333,0,0,1.3333333,0,20.020533)" />
      <path
         id="path98"
         d="M 225.359,105.207 V 8.641"
         style="fill:none;stroke:#000000;stroke-width:0.8;stroke-linecap:square;stroke-linejoin:miter;stroke-miterlimit:4;stroke-dasharray:none;stroke-opacity:1"
         transform="matrix(1.3333333,0,0,1.3333333,0,20.020533)" />
      <path
         id="path99"
         d="M 44.66,105.207 H 225.359"
         style="fill:none;stroke:#000000;stroke-width:0.8;stroke-linecap:square;stroke-linejoin:miter;stroke-miterlimit:4;stroke-dasharray:none;stroke-opacity:1"
         transform="matrix(1.3333333,0,0,1.3333333,0,20.020533)" />
      <path
         id="path100"
         d="M 44.66,8.641 H 225.359"
         style="fill:none;stroke:#000000;stroke-width:0.8;stroke-linecap:square;stroke-linejoin:miter;stroke-miterlimit:4;stroke-dasharray:none;stroke-opacity:1"
         transform="matrix(1.3333333,0,0,1.3333333,0,20.020533)" />
      <g
         opacity="0.8"
         id="g102">
        <path
           d="m 125.605,101.207 h 94.157 c 1.066,0 1.597,-0.531 1.597,-1.598 V 65.18 c 0,-1.067 -0.531,-1.598 -1.597,-1.598 h -94.157 c -1.066,0 -1.601,0.531 -1.601,1.598 v 34.429 c 0,1.067 0.535,1.598 1.601,1.598 z"
           style="fill:#ffffff;fill-opacity:1;fill-rule:nonzero;stroke:#cccccc;stroke-width:1;stroke-linecap:butt;stroke-linejoin:miter;stroke-miterlimit:4;stroke-dasharray:none;stroke-opacity:1"
           transform="matrix(1.3333333,0,0,1.3333333,0,20.020533)"
           clip-path="url(#clipPath101)"
           id="path102" />
      </g>
      <path
         id="path103"
         d="m 127.203,70.059 h 16"
         style="fill:none;stroke:#1f77b4;stroke-width:1;stroke-linecap:square;stroke-linejoin:round;stroke-miterlimit:4;stroke-dasharray:none;stroke-opacity:1"
         transform="matrix(1.3333333,0,0,1.3333333,0,20.020533)" />
      <path
         id="path104"
         d="m 135.203,72.059 2,-4 h -4 z"
         style="fill:#1f77b4;fill-opacity:1;fill-rule:nonzero;stroke:#1f77b4;stroke-width:1;stroke-linecap:butt;stroke-linejoin:miter;stroke-miterlimit:4;stroke-dasharray:none;stroke-opacity:1"
         transform="matrix(1.3333333,0,0,1.3333333,0,20.020533)" />
      <path
         id="path105"
         d="m 150.391,67.027 h 1.062 l 2.586,4.879 v -4.879 h 0.766 v 5.832 h -1.063 l -2.586,-4.879 v 4.879 h -0.765 z"
         style="fill:#000000;fill-opacity:1;fill-rule:nonzero;stroke:none"
         transform="matrix(1.3333333,0,0,1.3333333,0,20.020533)" />
      <path
         id="path106"
         d="m 158.039,68.988 c -0.387,0 -0.691,0.149 -0.914,0.45 -0.227,0.3 -0.336,0.714 -0.336,1.238 0,0.523 0.109,0.933 0.332,1.234 0.223,0.301 0.531,0.453 0.918,0.453 0.383,0 0.688,-0.152 0.91,-0.453 0.223,-0.301 0.336,-0.715 0.336,-1.234 0,-0.52 -0.113,-0.93 -0.336,-1.235 -0.222,-0.3 -0.527,-0.453 -0.91,-0.453 z m 0,-0.609 c 0.625,0 1.113,0.203 1.473,0.609 0.355,0.407 0.535,0.969 0.535,1.688 0,0.715 -0.18,1.277 -0.535,1.687 -0.36,0.407 -0.848,0.61 -1.473,0.61 -0.629,0 -1.121,-0.203 -1.477,-0.61 -0.355,-0.41 -0.531,-0.972 -0.531,-1.687 0,-0.719 0.176,-1.281 0.531,-1.688 0.356,-0.406 0.848,-0.609 1.477,-0.609 z"
         style="fill:#000000;fill-opacity:1;fill-rule:nonzero;stroke:none"
         transform="matrix(1.3333333,0,0,1.3333333,0,20.020533)" />
      <path
         id="path107"
         d="m 163.781,68.484 h 0.719 v 4.375 h -0.719 z m 0,-1.703 h 0.719 v 0.91 h -0.719 z"
         style="fill:#000000;fill-opacity:1;fill-rule:nonzero;stroke:none"
         transform="matrix(1.3333333,0,0,1.3333333,0,20.020533)" />
      <path
         id="path108"
         d="m 169.641,70.219 v 2.64 h -0.719 v -2.617 c 0,-0.414 -0.082,-0.722 -0.242,-0.93 -0.16,-0.207 -0.403,-0.308 -0.727,-0.308 -0.387,0 -0.695,0.125 -0.918,0.371 -0.226,0.246 -0.336,0.586 -0.336,1.012 v 2.472 h -0.722 v -4.375 h 0.722 v 0.68 c 0.172,-0.262 0.375,-0.461 0.606,-0.59 0.234,-0.129 0.504,-0.195 0.808,-0.195 0.504,0 0.883,0.156 1.141,0.465 0.258,0.312 0.387,0.769 0.387,1.375 z"
         style="fill:#000000;fill-opacity:1;fill-rule:nonzero;stroke:none"
         transform="matrix(1.3333333,0,0,1.3333333,0,20.020533)" />
      <path
         id="path109"
         d="m 174.711,70.219 v 2.64 h -0.719 v -2.617 c 0,-0.414 -0.082,-0.722 -0.242,-0.93 -0.16,-0.207 -0.402,-0.308 -0.727,-0.308 -0.386,0 -0.695,0.125 -0.918,0.371 -0.226,0.246 -0.335,0.586 -0.335,1.012 v 2.472 h -0.723 v -6.078 h 0.723 v 2.383 c 0.171,-0.262 0.375,-0.461 0.605,-0.59 0.234,-0.129 0.504,-0.195 0.809,-0.195 0.504,0 0.882,0.156 1.14,0.465 0.258,0.312 0.387,0.769 0.387,1.375 z"
         style="fill:#000000;fill-opacity:1;fill-rule:nonzero;stroke:none"
         transform="matrix(1.3333333,0,0,1.3333333,0,20.020533)" />
      <path
         id="path110"
         d="m 176.145,68.484 h 0.718 v 4.375 h -0.718 z m 0,-1.703 h 0.718 v 0.91 h -0.718 z"
         style="fill:#000000;fill-opacity:1;fill-rule:nonzero;stroke:none"
         transform="matrix(1.3333333,0,0,1.3333333,0,20.020533)" />
      <path
         id="path111"
         d="m 181.508,70.676 c 0,-0.528 -0.11,-0.942 -0.328,-1.242 -0.215,-0.301 -0.516,-0.454 -0.895,-0.454 -0.379,0 -0.68,0.153 -0.898,0.454 -0.215,0.3 -0.325,0.714 -0.325,1.242 0,0.527 0.11,0.941 0.325,1.242 0.218,0.301 0.519,0.453 0.898,0.453 0.379,0 0.68,-0.152 0.895,-0.453 0.218,-0.301 0.328,-0.715 0.328,-1.242 z m -2.446,-1.528 c 0.153,-0.261 0.34,-0.453 0.571,-0.578 0.23,-0.129 0.508,-0.191 0.828,-0.191 0.531,0 0.961,0.211 1.293,0.633 0.332,0.422 0.5,0.976 0.5,1.664 0,0.687 -0.168,1.242 -0.5,1.664 -0.332,0.422 -0.762,0.633 -1.293,0.633 -0.32,0 -0.598,-0.063 -0.828,-0.192 -0.231,-0.125 -0.418,-0.316 -0.571,-0.578 v 0.656 h -0.722 v -6.078 h 0.722 z"
         style="fill:#000000;fill-opacity:1;fill-rule:nonzero;stroke:none"
         transform="matrix(1.3333333,0,0,1.3333333,0,20.020533)" />
      <path
         id="path112"
         d="m 183.445,68.484 h 0.719 v 4.375 h -0.719 z m 0,-1.703 h 0.719 v 0.91 h -0.719 z"
         style="fill:#000000;fill-opacity:1;fill-rule:nonzero;stroke:none"
         transform="matrix(1.3333333,0,0,1.3333333,0,20.020533)" />
      <path
         id="path113"
         d="m 186.379,67.242 v 1.242 h 1.48 v 0.559 h -1.48 v 2.375 c 0,0.355 0.047,0.586 0.144,0.687 0.098,0.102 0.297,0.153 0.598,0.153 h 0.738 v 0.601 h -0.738 c -0.555,0 -0.937,-0.101 -1.148,-0.308 -0.211,-0.211 -0.317,-0.586 -0.317,-1.133 v -2.375 h -0.527 v -0.559 h 0.527 v -1.242 z"
         style="fill:#000000;fill-opacity:1;fill-rule:nonzero;stroke:none"
         transform="matrix(1.3333333,0,0,1.3333333,0,20.020533)" />
      <path
         id="path114"
         d="m 188.805,68.484 h 0.718 v 4.375 h -0.718 z m 0,-1.703 h 0.718 v 0.91 h -0.718 z"
         style="fill:#000000;fill-opacity:1;fill-rule:nonzero;stroke:none"
         transform="matrix(1.3333333,0,0,1.3333333,0,20.020533)" />
      <path
         id="path115"
         d="m 192.723,68.988 c -0.387,0 -0.692,0.149 -0.914,0.45 -0.227,0.3 -0.336,0.714 -0.336,1.238 0,0.523 0.109,0.933 0.332,1.234 0.222,0.301 0.531,0.453 0.918,0.453 0.382,0 0.687,-0.152 0.91,-0.453 0.222,-0.301 0.336,-0.715 0.336,-1.234 0,-0.52 -0.114,-0.93 -0.336,-1.235 -0.223,-0.3 -0.528,-0.453 -0.91,-0.453 z m 0,-0.609 c 0.625,0 1.113,0.203 1.472,0.609 0.356,0.407 0.535,0.969 0.535,1.688 0,0.715 -0.179,1.277 -0.535,1.687 -0.359,0.407 -0.847,0.61 -1.472,0.61 -0.629,0 -1.121,-0.203 -1.477,-0.61 -0.355,-0.41 -0.531,-0.972 -0.531,-1.687 0,-0.719 0.176,-1.281 0.531,-1.688 0.356,-0.406 0.848,-0.609 1.477,-0.609 z"
         style="fill:#000000;fill-opacity:1;fill-rule:nonzero;stroke:none"
         transform="matrix(1.3333333,0,0,1.3333333,0,20.020533)" />
      <path
         id="path116"
         d="m 199.559,70.219 v 2.64 h -0.719 v -2.617 c 0,-0.414 -0.082,-0.722 -0.242,-0.93 -0.16,-0.207 -0.403,-0.308 -0.727,-0.308 -0.387,0 -0.695,0.125 -0.918,0.371 -0.226,0.246 -0.336,0.586 -0.336,1.012 v 2.472 h -0.722 v -4.375 h 0.722 v 0.68 c 0.172,-0.262 0.375,-0.461 0.606,-0.59 0.234,-0.129 0.504,-0.195 0.808,-0.195 0.504,0 0.883,0.156 1.141,0.465 0.258,0.312 0.387,0.769 0.387,1.375 z"
         style="fill:#000000;fill-opacity:1;fill-rule:nonzero;stroke:none"
         transform="matrix(1.3333333,0,0,1.3333333,0,20.020533)" />
      <path
         id="path117"
         d="m 127.203,81.801 h 16"
         style="fill:none;stroke:#ff7f0e;stroke-width:1;stroke-linecap:square;stroke-linejoin:round;stroke-miterlimit:4;stroke-dasharray:none;stroke-opacity:1"
         transform="matrix(1.3333333,0,0,1.3333333,0,20.020533)" />
      <path
         id="path118"
         d="m 133.203,79.801 h 4 v 4 h -4 z"
         style="fill:#ff7f0e;fill-opacity:1;fill-rule:nonzero;stroke:#ff7f0e;stroke-width:1;stroke-linecap:butt;stroke-linejoin:miter;stroke-miterlimit:4;stroke-dasharray:none;stroke-opacity:1"
         transform="matrix(1.3333333,0,0,1.3333333,0,20.020533)" />
      <path
         id="path119"
         d="m 150.391,78.77 h 0.789 v 5.832 h -0.789 z"
         style="fill:#000000;fill-opacity:1;fill-rule:nonzero;stroke:none"
         transform="matrix(1.3333333,0,0,1.3333333,0,20.020533)" />
      <path
         id="path120"
         d="m 156.355,81.961 v 2.641 h -0.718 v -2.618 c 0,-0.414 -0.082,-0.722 -0.242,-0.929 -0.161,-0.203 -0.403,-0.309 -0.727,-0.309 -0.387,0 -0.695,0.125 -0.918,0.371 -0.227,0.246 -0.336,0.586 -0.336,1.012 v 2.473 h -0.723 v -4.375 h 0.723 v 0.679 c 0.172,-0.261 0.375,-0.461 0.606,-0.59 0.234,-0.128 0.503,-0.195 0.808,-0.195 0.504,0 0.883,0.156 1.141,0.469 0.258,0.308 0.386,0.765 0.386,1.371 z"
         style="fill:#000000;fill-opacity:1;fill-rule:nonzero;stroke:none"
         transform="matrix(1.3333333,0,0,1.3333333,0,20.020533)" />
      <path
         id="path121"
         d="m 161.426,81.961 v 2.641 h -0.719 v -2.618 c 0,-0.414 -0.082,-0.722 -0.242,-0.929 -0.16,-0.203 -0.403,-0.309 -0.727,-0.309 -0.386,0 -0.695,0.125 -0.918,0.371 -0.226,0.246 -0.336,0.586 -0.336,1.012 v 2.473 h -0.722 v -6.079 h 0.722 v 2.383 c 0.172,-0.261 0.375,-0.461 0.606,-0.59 0.234,-0.128 0.504,-0.195 0.808,-0.195 0.504,0 0.883,0.156 1.141,0.469 0.258,0.308 0.387,0.765 0.387,1.371 z"
         style="fill:#000000;fill-opacity:1;fill-rule:nonzero;stroke:none"
         transform="matrix(1.3333333,0,0,1.3333333,0,20.020533)" />
      <path
         id="path122"
         d="m 162.859,80.227 h 0.719 v 4.375 h -0.719 z m 0,-1.704 h 0.719 v 0.911 h -0.719 z"
         style="fill:#000000;fill-opacity:1;fill-rule:nonzero;stroke:none"
         transform="matrix(1.3333333,0,0,1.3333333,0,20.020533)" />
      <path
         id="path123"
         d="m 168.223,82.418 c 0,-0.527 -0.11,-0.941 -0.328,-1.242 -0.215,-0.301 -0.516,-0.453 -0.895,-0.453 -0.379,0 -0.68,0.152 -0.898,0.453 -0.215,0.301 -0.325,0.715 -0.325,1.242 0,0.527 0.11,0.941 0.325,1.242 0.218,0.301 0.519,0.453 0.898,0.453 0.379,0 0.68,-0.152 0.895,-0.453 0.218,-0.301 0.328,-0.715 0.328,-1.242 z m -2.446,-1.527 c 0.153,-0.262 0.34,-0.453 0.571,-0.579 0.23,-0.128 0.507,-0.191 0.828,-0.191 0.531,0 0.961,0.211 1.293,0.633 0.332,0.422 0.5,0.976 0.5,1.664 0,0.687 -0.168,1.242 -0.5,1.664 -0.332,0.422 -0.762,0.633 -1.293,0.633 -0.321,0 -0.598,-0.063 -0.828,-0.188 -0.231,-0.129 -0.418,-0.32 -0.571,-0.582 v 0.657 h -0.722 v -6.079 h 0.722 z"
         style="fill:#000000;fill-opacity:1;fill-rule:nonzero;stroke:none"
         transform="matrix(1.3333333,0,0,1.3333333,0,20.020533)" />
      <path
         id="path124"
         d="m 170.16,80.227 h 0.719 v 4.375 h -0.719 z m 0,-1.704 h 0.719 v 0.911 h -0.719 z"
         style="fill:#000000;fill-opacity:1;fill-rule:nonzero;stroke:none"
         transform="matrix(1.3333333,0,0,1.3333333,0,20.020533)" />
      <path
         id="path125"
         d="m 173.094,78.984 v 1.243 h 1.48 v 0.558 h -1.48 v 2.375 c 0,0.356 0.047,0.586 0.144,0.688 0.098,0.101 0.297,0.152 0.598,0.152 h 0.738 v 0.602 h -0.738 c -0.555,0 -0.938,-0.102 -1.148,-0.309 -0.211,-0.207 -0.317,-0.586 -0.317,-1.133 v -2.375 h -0.527 v -0.558 h 0.527 v -1.243 z"
         style="fill:#000000;fill-opacity:1;fill-rule:nonzero;stroke:none"
         transform="matrix(1.3333333,0,0,1.3333333,0,20.020533)" />
      <path
         id="path126"
         d="m 175.703,83.609 h 0.824 v 0.993 h -0.824 z m 0,-3.144 h 0.824 v 0.992 h -0.824 z"
         style="fill:#000000;fill-opacity:1;fill-rule:nonzero;stroke:none"
         transform="matrix(1.3333333,0,0,1.3333333,0,20.020533)" />
      <path
         id="path127"
         d="m 180.789,78.77 h 0.789 v 5.168 h 2.84 v 0.664 h -3.629 z"
         style="fill:#000000;fill-opacity:1;fill-rule:nonzero;stroke:none"
         transform="matrix(1.3333333,0,0,1.3333333,0,20.020533)" />
      <path
         id="path128"
         d="m 187.203,82.402 c -0.582,0 -0.984,0.067 -1.207,0.2 -0.226,0.132 -0.336,0.359 -0.336,0.679 0,0.254 0.082,0.457 0.25,0.61 0.168,0.148 0.399,0.222 0.688,0.222 0.398,0 0.718,-0.14 0.961,-0.425 0.238,-0.282 0.359,-0.657 0.359,-1.126 v -0.16 z m 1.434,-0.297 v 2.497 h -0.719 v -0.664 c -0.164,0.265 -0.367,0.46 -0.613,0.589 -0.246,0.125 -0.547,0.188 -0.899,0.188 -0.449,0 -0.804,-0.125 -1.07,-0.375 -0.262,-0.254 -0.395,-0.59 -0.395,-1.012 0,-0.492 0.164,-0.863 0.493,-1.113 0.332,-0.25 0.824,-0.375 1.476,-0.375 h 1.008 v -0.07 c 0,-0.332 -0.109,-0.586 -0.328,-0.77 -0.215,-0.18 -0.52,-0.27 -0.914,-0.27 -0.25,0 -0.492,0.032 -0.731,0.09 -0.238,0.059 -0.465,0.149 -0.683,0.27 v -0.664 c 0.261,-0.102 0.515,-0.18 0.765,-0.227 0.246,-0.051 0.489,-0.078 0.723,-0.078 0.633,0 1.105,0.164 1.418,0.492 0.312,0.328 0.469,0.825 0.469,1.492 z"
         style="fill:#000000;fill-opacity:1;fill-rule:nonzero;stroke:none"
         transform="matrix(1.3333333,0,0,1.3333333,0,20.020533)" />
      <path
         id="path129"
         d="m 190.812,83.945 v 2.321 h -0.722 v -6.039 h 0.722 v 0.664 c 0.153,-0.262 0.34,-0.453 0.571,-0.579 0.23,-0.128 0.508,-0.191 0.828,-0.191 0.531,0 0.961,0.211 1.293,0.633 0.332,0.422 0.5,0.976 0.5,1.664 0,0.687 -0.168,1.242 -0.5,1.664 -0.332,0.422 -0.762,0.633 -1.293,0.633 -0.32,0 -0.598,-0.063 -0.828,-0.188 -0.231,-0.129 -0.418,-0.32 -0.571,-0.582 z m 2.446,-1.527 c 0,-0.527 -0.11,-0.941 -0.328,-1.242 -0.215,-0.301 -0.516,-0.453 -0.895,-0.453 -0.379,0 -0.68,0.152 -0.898,0.453 -0.215,0.301 -0.325,0.715 -0.325,1.242 0,0.527 0.11,0.941 0.325,1.242 0.218,0.301 0.519,0.453 0.898,0.453 0.379,0 0.68,-0.152 0.895,-0.453 0.218,-0.301 0.328,-0.715 0.328,-1.242 z"
         style="fill:#000000;fill-opacity:1;fill-rule:nonzero;stroke:none"
         transform="matrix(1.3333333,0,0,1.3333333,0,20.020533)" />
      <path
         id="path130"
         d="m 195.195,78.523 h 0.719 v 6.078 h -0.719 z"
         style="fill:#000000;fill-opacity:1;fill-rule:nonzero;stroke:none"
         transform="matrix(1.3333333,0,0,1.3333333,0,20.020533)" />
      <path
         id="path131"
         d="m 199.406,82.402 c -0.582,0 -0.984,0.067 -1.207,0.2 -0.226,0.132 -0.336,0.359 -0.336,0.679 0,0.254 0.082,0.457 0.25,0.61 0.168,0.148 0.399,0.222 0.688,0.222 0.398,0 0.719,-0.14 0.961,-0.425 0.238,-0.282 0.359,-0.657 0.359,-1.126 v -0.16 z m 1.434,-0.297 v 2.497 h -0.719 v -0.664 c -0.164,0.265 -0.367,0.46 -0.613,0.589 -0.246,0.125 -0.547,0.188 -0.899,0.188 -0.449,0 -0.804,-0.125 -1.07,-0.375 -0.262,-0.254 -0.394,-0.59 -0.394,-1.012 0,-0.492 0.164,-0.863 0.492,-1.113 0.332,-0.25 0.824,-0.375 1.476,-0.375 h 1.008 v -0.07 c 0,-0.332 -0.109,-0.586 -0.328,-0.77 -0.215,-0.18 -0.52,-0.27 -0.914,-0.27 -0.25,0 -0.492,0.032 -0.731,0.09 -0.238,0.059 -0.464,0.149 -0.683,0.27 v -0.664 c 0.262,-0.102 0.515,-0.18 0.765,-0.227 0.247,-0.051 0.489,-0.078 0.723,-0.078 0.633,0 1.106,0.164 1.418,0.492 0.313,0.328 0.469,0.825 0.469,1.492 z"
         style="fill:#000000;fill-opacity:1;fill-rule:nonzero;stroke:none"
         transform="matrix(1.3333333,0,0,1.3333333,0,20.020533)" />
      <path
         id="path132"
         d="m 205.469,80.395 v 0.671 c -0.203,-0.113 -0.407,-0.195 -0.614,-0.254 -0.203,-0.054 -0.41,-0.082 -0.617,-0.082 -0.465,0 -0.828,0.149 -1.086,0.446 -0.257,0.293 -0.386,0.707 -0.386,1.242 0,0.535 0.129,0.949 0.386,1.246 0.258,0.293 0.621,0.441 1.086,0.441 0.207,0 0.414,-0.027 0.617,-0.082 0.207,-0.058 0.411,-0.14 0.614,-0.253 v 0.664 c -0.199,0.093 -0.41,0.164 -0.625,0.211 -0.215,0.046 -0.442,0.07 -0.684,0.07 -0.66,0 -1.183,-0.207 -1.57,-0.621 -0.391,-0.414 -0.582,-0.973 -0.582,-1.676 0,-0.715 0.195,-1.273 0.586,-1.684 0.394,-0.406 0.929,-0.613 1.613,-0.613 0.223,0 0.438,0.024 0.648,0.07 0.211,0.043 0.415,0.114 0.614,0.204 z"
         style="fill:#000000;fill-opacity:1;fill-rule:nonzero;stroke:none"
         transform="matrix(1.3333333,0,0,1.3333333,0,20.020533)" />
      <path
         id="path133"
         d="m 206.719,80.227 h 0.719 v 4.375 h -0.719 z m 0,-1.704 h 0.719 v 0.911 h -0.719 z"
         style="fill:#000000;fill-opacity:1;fill-rule:nonzero;stroke:none"
         transform="matrix(1.3333333,0,0,1.3333333,0,20.020533)" />
      <path
         id="path134"
         d="m 210.93,82.402 c -0.582,0 -0.985,0.067 -1.207,0.2 -0.227,0.132 -0.336,0.359 -0.336,0.679 0,0.254 0.082,0.457 0.25,0.61 0.168,0.148 0.398,0.222 0.687,0.222 0.399,0 0.719,-0.14 0.961,-0.425 0.238,-0.282 0.36,-0.657 0.36,-1.126 v -0.16 z m 1.433,-0.297 v 2.497 h -0.718 v -0.664 c -0.165,0.265 -0.368,0.46 -0.614,0.589 -0.246,0.125 -0.547,0.188 -0.898,0.188 -0.449,0 -0.805,-0.125 -1.071,-0.375 -0.261,-0.254 -0.394,-0.59 -0.394,-1.012 0,-0.492 0.164,-0.863 0.492,-1.113 0.332,-0.25 0.824,-0.375 1.477,-0.375 h 1.008 v -0.07 c 0,-0.332 -0.11,-0.586 -0.329,-0.77 -0.214,-0.18 -0.519,-0.27 -0.914,-0.27 -0.25,0 -0.492,0.032 -0.73,0.09 -0.238,0.059 -0.465,0.149 -0.684,0.27 v -0.664 c 0.262,-0.102 0.516,-0.18 0.766,-0.227 0.246,-0.051 0.488,-0.078 0.723,-0.078 0.632,0 1.105,0.164 1.418,0.492 0.312,0.328 0.468,0.825 0.468,1.492 z"
         style="fill:#000000;fill-opacity:1;fill-rule:nonzero;stroke:none"
         transform="matrix(1.3333333,0,0,1.3333333,0,20.020533)" />
      <path
         id="path135"
         d="m 217.48,81.961 v 2.641 h -0.718 v -2.618 c 0,-0.414 -0.082,-0.722 -0.242,-0.929 -0.161,-0.203 -0.403,-0.309 -0.727,-0.309 -0.387,0 -0.695,0.125 -0.918,0.371 -0.227,0.246 -0.336,0.586 -0.336,1.012 v 2.473 h -0.723 v -4.375 h 0.723 v 0.679 c 0.172,-0.261 0.375,-0.461 0.606,-0.59 0.234,-0.128 0.503,-0.195 0.808,-0.195 0.504,0 0.883,0.156 1.141,0.469 0.258,0.308 0.386,0.765 0.386,1.371 z"
         style="fill:#000000;fill-opacity:1;fill-rule:nonzero;stroke:none"
         transform="matrix(1.3333333,0,0,1.3333333,0,20.020533)" />
      <path
         id="path136"
         d="m 127.203,93.543 h 16"
         style="fill:none;stroke:#2ca02c;stroke-width:1;stroke-linecap:square;stroke-linejoin:round;stroke-miterlimit:4;stroke-dasharray:none;stroke-opacity:1"
         transform="matrix(1.3333333,0,0,1.3333333,0,20.020533)" />
      <path
         id="path137"
         d="m 133.203,95.543 4,-4 m -4,0 4,4"
         style="fill:#2ca02c;fill-opacity:1;fill-rule:nonzero;stroke:#2ca02c;stroke-width:1;stroke-linecap:butt;stroke-linejoin:round;stroke-miterlimit:4;stroke-dasharray:none;stroke-opacity:1"
         transform="matrix(1.3333333,0,0,1.3333333,0,20.020533)" />
      <path
         id="path138"
         d="m 150.391,90.512 h 0.789 v 5.832 h -0.789 z"
         style="fill:#000000;fill-opacity:1;fill-rule:nonzero;stroke:none"
         transform="matrix(1.3333333,0,0,1.3333333,0,20.020533)" />
      <path
         id="path139"
         d="m 156.355,93.703 v 2.641 h -0.718 v -2.617 c 0,-0.415 -0.082,-0.723 -0.242,-0.93 -0.161,-0.203 -0.403,-0.309 -0.727,-0.309 -0.387,0 -0.695,0.125 -0.918,0.371 -0.227,0.246 -0.336,0.586 -0.336,1.012 v 2.473 h -0.723 v -4.375 h 0.723 v 0.679 c 0.172,-0.261 0.375,-0.46 0.606,-0.589 0.234,-0.129 0.503,-0.196 0.808,-0.196 0.504,0 0.883,0.157 1.141,0.469 0.258,0.309 0.386,0.766 0.386,1.371 z"
         style="fill:#000000;fill-opacity:1;fill-rule:nonzero;stroke:none"
         transform="matrix(1.3333333,0,0,1.3333333,0,20.020533)" />
      <path
         id="path140"
         d="m 161.426,93.703 v 2.641 h -0.719 v -2.617 c 0,-0.415 -0.082,-0.723 -0.242,-0.93 -0.16,-0.203 -0.403,-0.309 -0.727,-0.309 -0.386,0 -0.695,0.125 -0.918,0.371 -0.226,0.246 -0.336,0.586 -0.336,1.012 v 2.473 h -0.722 v -6.078 h 0.722 v 2.382 c 0.172,-0.261 0.375,-0.46 0.606,-0.589 0.234,-0.129 0.504,-0.196 0.808,-0.196 0.504,0 0.883,0.157 1.141,0.469 0.258,0.309 0.387,0.766 0.387,1.371 z"
         style="fill:#000000;fill-opacity:1;fill-rule:nonzero;stroke:none"
         transform="matrix(1.3333333,0,0,1.3333333,0,20.020533)" />
      <path
         id="path141"
         d="m 162.859,91.969 h 0.719 v 4.375 h -0.719 z m 0,-1.703 h 0.719 v 0.91 h -0.719 z"
         style="fill:#000000;fill-opacity:1;fill-rule:nonzero;stroke:none"
         transform="matrix(1.3333333,0,0,1.3333333,0,20.020533)" />
      <path
         id="path142"
         d="m 168.223,94.16 c 0,-0.527 -0.11,-0.941 -0.328,-1.242 -0.215,-0.301 -0.516,-0.453 -0.895,-0.453 -0.379,0 -0.68,0.152 -0.898,0.453 -0.215,0.301 -0.325,0.715 -0.325,1.242 0,0.528 0.11,0.942 0.325,1.242 0.218,0.305 0.519,0.453 0.898,0.453 0.379,0 0.68,-0.148 0.895,-0.453 0.218,-0.3 0.328,-0.714 0.328,-1.242 z m -2.446,-1.527 c 0.153,-0.262 0.34,-0.453 0.571,-0.578 0.23,-0.129 0.507,-0.192 0.828,-0.192 0.531,0 0.961,0.211 1.293,0.633 0.332,0.422 0.5,0.977 0.5,1.664 0,0.688 -0.168,1.242 -0.5,1.664 -0.332,0.422 -0.762,0.633 -1.293,0.633 -0.321,0 -0.598,-0.062 -0.828,-0.187 -0.231,-0.129 -0.418,-0.321 -0.571,-0.582 v 0.656 h -0.722 v -6.078 h 0.722 z"
         style="fill:#000000;fill-opacity:1;fill-rule:nonzero;stroke:none"
         transform="matrix(1.3333333,0,0,1.3333333,0,20.020533)" />
      <path
         id="path143"
         d="m 170.16,91.969 h 0.719 v 4.375 h -0.719 z m 0,-1.703 h 0.719 v 0.91 h -0.719 z"
         style="fill:#000000;fill-opacity:1;fill-rule:nonzero;stroke:none"
         transform="matrix(1.3333333,0,0,1.3333333,0,20.020533)" />
      <path
         id="path144"
         d="m 173.094,90.727 v 1.242 h 1.48 v 0.558 h -1.48 v 2.375 c 0,0.356 0.047,0.586 0.144,0.688 0.098,0.101 0.297,0.152 0.598,0.152 h 0.738 v 0.602 h -0.738 c -0.555,0 -0.938,-0.102 -1.148,-0.309 -0.211,-0.207 -0.317,-0.586 -0.317,-1.133 v -2.375 h -0.527 v -0.558 h 0.527 v -1.242 z"
         style="fill:#000000;fill-opacity:1;fill-rule:nonzero;stroke:none"
         transform="matrix(1.3333333,0,0,1.3333333,0,20.020533)" />
      <path
         id="path145"
         d="m 175.703,95.352 h 0.824 v 0.992 h -0.824 z m 0,-3.145 h 0.824 v 0.992 h -0.824 z"
         style="fill:#000000;fill-opacity:1;fill-rule:nonzero;stroke:none"
         transform="matrix(1.3333333,0,0,1.3333333,0,20.020533)" />
      <path
         id="path146"
         d="m 181.578,91.16 v 2.192 h 0.992 c 0.368,0 0.653,-0.094 0.852,-0.286 0.199,-0.191 0.301,-0.461 0.301,-0.812 0,-0.348 -0.102,-0.617 -0.301,-0.809 -0.199,-0.191 -0.484,-0.285 -0.852,-0.285 z m -0.789,-0.648 h 1.781 c 0.653,0 1.149,0.148 1.481,0.445 0.336,0.293 0.504,0.727 0.504,1.297 0,0.578 -0.168,1.012 -0.504,1.305 C 183.719,93.852 183.223,94 182.57,94 h -0.992 v 2.344 h -0.789 z"
         style="fill:#000000;fill-opacity:1;fill-rule:nonzero;stroke:none"
         transform="matrix(1.3333333,0,0,1.3333333,0,20.020533)" />
      <path
         id="path147"
         d="m 187.977,92.641 c -0.082,-0.047 -0.168,-0.082 -0.266,-0.102 -0.094,-0.023 -0.199,-0.035 -0.313,-0.035 -0.406,0 -0.718,0.133 -0.937,0.398 -0.215,0.262 -0.324,0.641 -0.324,1.137 v 2.305 h -0.723 v -4.375 h 0.723 v 0.679 c 0.152,-0.265 0.347,-0.46 0.59,-0.589 0.242,-0.129 0.535,-0.196 0.882,-0.196 0.051,0 0.106,0.004 0.164,0.012 0.059,0.004 0.125,0.016 0.2,0.027 z"
         style="fill:#000000;fill-opacity:1;fill-rule:nonzero;stroke:none"
         transform="matrix(1.3333333,0,0,1.3333333,0,20.020533)" />
      <path
         id="path148"
         d="m 190.246,92.473 c -0.387,0 -0.691,0.152 -0.914,0.453 -0.223,0.301 -0.336,0.711 -0.336,1.234 0,0.524 0.109,0.938 0.332,1.238 0.223,0.301 0.531,0.45 0.918,0.45 0.383,0 0.688,-0.153 0.91,-0.453 0.223,-0.301 0.336,-0.715 0.336,-1.235 0,-0.519 -0.113,-0.93 -0.336,-1.23 -0.222,-0.305 -0.527,-0.457 -0.91,-0.457 z m 0,-0.61 c 0.625,0 1.113,0.203 1.473,0.61 0.355,0.406 0.535,0.968 0.535,1.687 0,0.715 -0.18,1.278 -0.535,1.688 -0.36,0.406 -0.848,0.609 -1.473,0.609 -0.629,0 -1.121,-0.203 -1.476,-0.609 -0.356,-0.41 -0.532,-0.973 -0.532,-1.688 0,-0.719 0.176,-1.281 0.532,-1.687 0.355,-0.407 0.847,-0.61 1.476,-0.61 z"
         style="fill:#000000;fill-opacity:1;fill-rule:nonzero;stroke:none"
         transform="matrix(1.3333333,0,0,1.3333333,0,20.020533)" />
      <path
         id="path149"
         d="m 194.141,95.688 v 2.32 h -0.723 v -6.039 h 0.723 v 0.664 c 0.152,-0.262 0.343,-0.453 0.57,-0.578 0.23,-0.129 0.508,-0.192 0.828,-0.192 0.531,0 0.965,0.211 1.293,0.633 0.336,0.422 0.5,0.977 0.5,1.664 0,0.688 -0.164,1.242 -0.5,1.664 -0.328,0.422 -0.762,0.633 -1.293,0.633 -0.32,0 -0.598,-0.062 -0.828,-0.187 -0.227,-0.129 -0.418,-0.321 -0.57,-0.582 z m 2.445,-1.528 c 0,-0.527 -0.109,-0.941 -0.324,-1.242 -0.219,-0.301 -0.52,-0.453 -0.899,-0.453 -0.379,0 -0.679,0.152 -0.898,0.453 -0.215,0.301 -0.324,0.715 -0.324,1.242 0,0.528 0.109,0.942 0.324,1.242 0.219,0.305 0.519,0.453 0.898,0.453 0.379,0 0.68,-0.148 0.899,-0.453 0.215,-0.3 0.324,-0.714 0.324,-1.242 z"
         style="fill:#000000;fill-opacity:1;fill-rule:nonzero;stroke:none"
         transform="matrix(1.3333333,0,0,1.3333333,0,20.020533)" />
      <path
         id="path150"
         d="m 200.219,92.473 c -0.387,0 -0.692,0.152 -0.914,0.453 -0.223,0.301 -0.336,0.711 -0.336,1.234 0,0.524 0.109,0.938 0.332,1.238 0.222,0.301 0.531,0.45 0.918,0.45 0.383,0 0.687,-0.153 0.91,-0.453 0.223,-0.301 0.336,-0.715 0.336,-1.235 0,-0.519 -0.113,-0.93 -0.336,-1.23 -0.223,-0.305 -0.527,-0.457 -0.91,-0.457 z m 0,-0.61 c 0.625,0 1.113,0.203 1.472,0.61 0.356,0.406 0.536,0.968 0.536,1.687 0,0.715 -0.18,1.278 -0.536,1.688 -0.359,0.406 -0.847,0.609 -1.472,0.609 -0.629,0 -1.121,-0.203 -1.477,-0.609 -0.355,-0.41 -0.531,-0.973 -0.531,-1.688 0,-0.719 0.176,-1.281 0.531,-1.687 0.356,-0.407 0.848,-0.61 1.477,-0.61 z"
         style="fill:#000000;fill-opacity:1;fill-rule:nonzero;stroke:none"
         transform="matrix(1.3333333,0,0,1.3333333,0,20.020533)" />
      <path
         id="path151"
         d="m 206.207,92.098 v 0.679 c -0.203,-0.101 -0.414,-0.179 -0.633,-0.234 -0.219,-0.051 -0.445,-0.078 -0.679,-0.078 -0.356,0 -0.625,0.055 -0.805,0.164 -0.176,0.109 -0.266,0.273 -0.266,0.492 0,0.168 0.063,0.297 0.192,0.395 0.129,0.093 0.382,0.183 0.769,0.269 l 0.246,0.055 c 0.512,0.109 0.871,0.265 1.086,0.465 0.215,0.199 0.324,0.476 0.324,0.832 0,0.406 -0.16,0.73 -0.484,0.965 -0.32,0.238 -0.762,0.355 -1.324,0.355 -0.235,0 -0.477,-0.023 -0.735,-0.066 -0.253,-0.047 -0.519,-0.118 -0.8,-0.207 v -0.743 c 0.265,0.141 0.527,0.243 0.785,0.313 0.258,0.066 0.512,0.101 0.765,0.101 0.34,0 0.598,-0.058 0.782,-0.171 0.183,-0.118 0.273,-0.282 0.273,-0.493 0,-0.195 -0.066,-0.343 -0.199,-0.449 -0.129,-0.101 -0.418,-0.203 -0.863,-0.301 l -0.25,-0.058 c -0.446,-0.094 -0.766,-0.238 -0.965,-0.43 -0.199,-0.195 -0.297,-0.461 -0.297,-0.801 0,-0.41 0.144,-0.726 0.437,-0.953 0.293,-0.222 0.707,-0.336 1.243,-0.336 0.265,0 0.515,0.02 0.75,0.059 0.234,0.039 0.449,0.098 0.648,0.176 z"
         style="fill:#000000;fill-opacity:1;fill-rule:nonzero;stroke:none"
         transform="matrix(1.3333333,0,0,1.3333333,0,20.020533)" />
      <path
         id="path152"
         d="m 211.328,93.977 v 0.351 h -3.305 c 0.032,0.496 0.18,0.871 0.446,1.133 0.269,0.258 0.64,0.387 1.117,0.387 0.277,0 0.543,-0.036 0.801,-0.102 0.261,-0.066 0.519,-0.168 0.773,-0.305 v 0.68 c -0.258,0.109 -0.523,0.191 -0.793,0.25 -0.269,0.059 -0.547,0.086 -0.824,0.086 -0.699,0 -1.25,-0.203 -1.66,-0.609 -0.406,-0.407 -0.61,-0.953 -0.61,-1.649 0,-0.715 0.192,-1.285 0.579,-1.703 0.386,-0.422 0.91,-0.633 1.566,-0.633 0.59,0 1.055,0.192 1.394,0.571 0.344,0.378 0.516,0.89 0.516,1.543 z m -0.719,-0.211 c -0.004,-0.395 -0.113,-0.707 -0.328,-0.942 -0.219,-0.234 -0.5,-0.351 -0.855,-0.351 -0.403,0 -0.723,0.113 -0.961,0.339 -0.242,0.227 -0.383,0.547 -0.418,0.958 z"
         style="fill:#000000;fill-opacity:1;fill-rule:nonzero;stroke:none"
         transform="matrix(1.3333333,0,0,1.3333333,0,20.020533)" />
      <path
         id="path153"
         d="m 215.387,92.633 v -2.367 h 0.718 v 6.078 h -0.718 v -0.656 c -0.153,0.261 -0.344,0.453 -0.575,0.582 -0.23,0.125 -0.503,0.187 -0.828,0.187 -0.527,0 -0.961,-0.211 -1.293,-0.633 -0.332,-0.422 -0.496,-0.976 -0.496,-1.664 0,-0.687 0.164,-1.242 0.496,-1.664 0.332,-0.422 0.766,-0.633 1.293,-0.633 0.325,0 0.598,0.063 0.828,0.192 0.231,0.125 0.422,0.316 0.575,0.578 z m -2.449,1.527 c 0,0.528 0.109,0.942 0.328,1.242 0.214,0.305 0.515,0.453 0.894,0.453 0.379,0 0.68,-0.148 0.899,-0.453 0.218,-0.3 0.328,-0.714 0.328,-1.242 0,-0.527 -0.11,-0.941 -0.328,-1.242 -0.219,-0.301 -0.52,-0.453 -0.899,-0.453 -0.379,0 -0.68,0.152 -0.894,0.453 -0.219,0.301 -0.328,0.715 -0.328,1.242 z"
         style="fill:#000000;fill-opacity:1;fill-rule:nonzero;stroke:none"
         transform="matrix(1.3333333,0,0,1.3333333,0,20.020533)" />
      <path
         id="path154"
         d="m 159.77,32.77 15.125,0.136"
         style="fill:#000000;fill-opacity:1;fill-rule:nonzero;stroke:#003100;stroke-width:1;stroke-linecap:butt;stroke-linejoin:round;stroke-miterlimit:4;stroke-dasharray:none;stroke-opacity:1"
         transform="matrix(1.3333333,0,0,1.3333333,0,20.020533)" />
      <path
         id="path155"
         d="m 158.77,32.762 3.027,-2.973 2,0.02 -3.027,2.972 2.972,3.028 -2,-0.02 z"
         style="fill:#003100;fill-opacity:1;fill-rule:evenodd;stroke:none"
         transform="matrix(1.3333333,0,0,1.3333333,0,20.020533)" />
      <path
         id="path156"
         d="M 0.38677831,-2.5065361 H 2.4961533 v 0.6328125 H 0.38677831 Z M 4.420958,-0.66669231 h 2.7539063 v 0.66796875 h -3.703125 v -0.66796875 c 0.2958984,-0.3046875 0.703125,-0.71777339 1.21875,-1.24218749 0.5214843,-0.5214844 0.8496093,-0.8583984 0.984375,-1.0078125 0.2490234,-0.2871094 0.4248046,-0.5302734 0.5273437,-0.7265625 0.099609,-0.1933594 0.1523438,-0.3896484 0.1523438,-0.5859375 0,-0.3046875 -0.1113282,-0.5537109 -0.328125,-0.75 -0.2197266,-0.1933594 -0.5039063,-0.2929688 -0.8554688,-0.2929688 -0.2431641,0 -0.5039062,0.043945 -0.7851562,0.1289063 -0.2753907,0.087891 -0.5683594,0.2167969 -0.8789063,0.3867187 v -0.796875 c 0.3193359,-0.1230468 0.6152344,-0.2167968 0.890625,-0.28125 0.28125,-0.070312 0.5332031,-0.1054687 0.7617188,-0.1054687 0.6005859,0 1.0810546,0.1523437 1.4414062,0.4570312 0.3662109,0.2988282 0.5507813,0.7001954 0.5507813,1.2070313 0,0.2431641 -0.046875,0.4746094 -0.140625,0.6914062 -0.09375,0.2109375 -0.2578125,0.4628907 -0.4921875,0.75 -0.064453,0.079102 -0.2695313,0.2988282 -0.6210938,0.65625 -0.3515625,0.3603516 -0.84375,0.8642579 -1.4765625,1.51171879 z m 6.580078,-4.47656249 -1.9921874,3.1171875 h 1.9921874 z m -0.210937,-0.6914063 h 0.996093 v 3.8085938 h 0.832032 v 0.65625 H 11.786192 V 0.00127644 H 11.001036 V -1.3698173 H 8.3643174 v -0.7617188 z m 8.100586,3.2695313 c -0.228516,0 -0.407227,0.099609 -0.539063,0.2929687 -0.125976,0.1875 -0.1875,0.4541016 -0.1875,0.796875 0,0.3457032 0.06152,0.61523441 0.1875,0.80859379 0.131836,0.1875 0.310547,0.28125 0.539063,0.28125 0.216796,0 0.389648,-0.09375 0.515625,-0.28125 0.131836,-0.19335938 0.199218,-0.46289059 0.199218,-0.80859379 0,-0.3339843 -0.06738,-0.6005859 -0.199218,-0.796875 -0.125977,-0.1933593 -0.298829,-0.2929687 -0.515625,-0.2929687 z m 0,-0.4921875 c 0.404296,0 0.729492,0.1464844 0.972656,0.4335937 0.240234,0.28125 0.363281,0.6650391 0.363281,1.1484375 0,0.49218754 -0.123047,0.88476566 -0.363281,1.17187504 -0.243164,0.28125 -0.56836,0.421875 -0.972656,0.421875 -0.421875,0 -0.75586,-0.140625 -0.996094,-0.421875 -0.243164,-0.28710938 -0.363281,-0.6796875 -0.363281,-1.17187504 0,-0.4833984 0.120117,-0.8671875 0.363281,-1.1484375 0.249023,-0.2871093 0.580078,-0.4335937 0.996094,-0.4335937 z m -4.042969,-2.390625 c -0.219727,0 -0.395508,0.099609 -0.527344,0.2929687 -0.125976,0.1962891 -0.1875,0.4628907 -0.1875,0.796875 0,0.3515625 0.06152,0.6269532 0.1875,0.8203125 0.123047,0.1875 0.298828,0.28125 0.527344,0.28125 0.225586,0 0.401367,-0.09375 0.527344,-0.28125 0.131836,-0.1933593 0.199218,-0.46875 0.199218,-0.8203125 0,-0.3339843 -0.06738,-0.6005859 -0.199218,-0.796875 -0.125977,-0.1933593 -0.301758,-0.2929687 -0.527344,-0.2929687 z m 3.539062,-0.4921875 h 0.621094 l -3.65625,6.05859374 h -0.621094 z m -3.539062,0 c 0.413086,0 0.741211,0.1464844 0.984375,0.4335937 0.249023,0.28125 0.375,0.6650391 0.375,1.1484375 0,0.5009766 -0.125977,0.890625 -0.375,1.171875 -0.243164,0.28125 -0.571289,0.421875 -0.984375,0.421875 -0.416016,0 -0.744141,-0.140625 -0.984375,-0.421875 -0.234375,-0.2871093 -0.351563,-0.6796875 -0.351563,-1.171875 0,-0.4833984 0.120118,-0.8671875 0.363282,-1.1484375 0.240234,-0.2871093 0.565429,-0.4335937 0.972656,-0.4335937 z m 9.93457,0.75 v 4.54687499 h 0.960938 c 0.802734,0 1.394531,-0.18164063 1.769531,-0.55078129 0.375,-0.3662109 0.5625,-0.9404296 0.5625,-1.7226562 0,-0.7880859 -0.1875,-1.3623047 -0.5625,-1.7226563 -0.375,-0.3662109 -0.966797,-0.5507812 -1.769531,-0.5507812 z M 23.99713,-5.8346611 h 1.617187 c 1.13086,0 1.962891,0.234375 2.496094,0.703125 0.530274,0.46875 0.796875,1.2070313 0.796875,2.2148438 0,1.0019531 -0.266601,1.7402344 -0.796875,2.21484374 -0.533203,0.46875 -1.365234,0.703125 -2.496094,0.703125 H 23.99713 Z m 0,0"
         style="fill:#000000;fill-opacity:1;fill-rule:nonzero;stroke:none"
         aria-label="-24% D"
         transform="matrix(1.3333333,0,0,1.3333333,199.47913,45.328529)" />
      <path
         id="path157"
         d="M 167.332,32.84 162.57,18.98"
         style="fill:#000000;fill-opacity:1;fill-rule:nonzero;stroke:#000000;stroke-width:0.999997;stroke-linecap:butt;stroke-linejoin:round;stroke-miterlimit:4;stroke-dasharray:1.99999, 0.999997;stroke-dashoffset:0;stroke-opacity:0.278736"
         transform="matrix(1.3333333,0,0,1.3333333,0,20.020533)" />
      <path
         id="path158"
         d="m 60.328,97.324 8.508,0.078"
         style="fill:#000000;fill-opacity:1;fill-rule:nonzero;stroke:#003100;stroke-width:1;stroke-linecap:butt;stroke-linejoin:round;stroke-miterlimit:4;stroke-dasharray:none;stroke-opacity:1"
         transform="matrix(1.3333333,0,0,1.3333333,0,20.020533)" />
      <path
         id="path159"
         d="m 59.328,97.316 3.024,-2.972 2,0.019 -3.024,2.973 2.973,3.027 -2,-0.019 z"
         style="fill:#003100;fill-opacity:1;fill-rule:evenodd;stroke:none"
         transform="matrix(1.3333333,0,0,1.3333333,0,20.020533)" />
      <path
         id="path160"
         d="M 0.38567525,-2.5072742 H 2.4950502 v 0.6328125 H 0.38567525 Z M 5.5243471,-3.2338367 c -0.3515625,0 -0.6328125,0.1230469 -0.84375,0.3632813 -0.2050781,0.243164 -0.3046875,0.5742187 -0.3046875,0.9960937 0,0.421875 0.099609,0.7558594 0.3046875,0.99609376 0.2109375,0.24316406 0.4921875,0.36328125 0.84375,0.36328125 0.3574219,0 0.6386719,-0.12011719 0.84375,-0.36328125 0.2109375,-0.24023436 0.3164063,-0.57421876 0.3164063,-0.99609376 0,-0.421875 -0.1054688,-0.7529297 -0.3164063,-0.9960937 C 6.163019,-3.1107898 5.881769,-3.2338367 5.5243471,-3.2338367 Z m 1.5703125,-2.4726562 v 0.7148437 c -0.196289,-0.09375 -0.3955078,-0.1640625 -0.5976562,-0.2109375 -0.2050782,-0.046875 -0.4042969,-0.070312 -0.5976563,-0.070312 -0.524414,0 -0.9228515,0.1757813 -1.1953125,0.5273438 -0.2753906,0.3515625 -0.430664,0.8847656 -0.46875,1.59375 0.1464844,-0.225586 0.3398438,-0.3984375 0.5742188,-0.515625 0.234375,-0.1230469 0.4863281,-0.1875 0.7617187,-0.1875 0.5859375,0 1.0488281,0.1816406 1.3945313,0.5390625 0.3427734,0.3515625 0.515625,0.8320312 0.515625,1.4414062 0,0.6035156 -0.1816407,1.08691407 -0.5390625,1.45312501 -0.3515625,0.36035156 -0.8261719,0.5390625 -1.4179688,0.5390625 -0.6738281,0 -1.1894531,-0.2578125 -1.546875,-0.7734375 C 3.6259096,-1.1771961 3.4501284,-1.9271961 3.4501284,-2.9057117 c 0,-0.9287109 0.2167968,-1.6669922 0.65625,-2.2148437 0.4365234,-0.5449219 1.0224609,-0.8203125 1.7578125,-0.8203125 0.1933593,0 0.3925781,0.020508 0.5976562,0.058594 0.2021485,0.041016 0.413086,0.099609 0.6328125,0.175781 z m 6.7060544,3.140625 c -0.228515,0 -0.407226,0.099609 -0.539062,0.2929687 -0.125977,0.1875 -0.1875,0.4541016 -0.1875,0.796875 0,0.3457031 0.06152,0.61523439 0.1875,0.80859376 0.131836,0.1875 0.310547,0.28125 0.539062,0.28125 0.216797,0 0.389649,-0.09375 0.515625,-0.28125 0.131836,-0.19335937 0.199219,-0.46289066 0.199219,-0.80859376 0,-0.3339844 -0.06738,-0.6005859 -0.199219,-0.796875 -0.125976,-0.1933594 -0.298828,-0.2929687 -0.515625,-0.2929687 z m 0,-0.4921875 c 0.404297,0 0.729492,0.1464843 0.972657,0.4335937 0.240234,0.28125 0.363281,0.6650391 0.363281,1.1484375 0,0.49218751 -0.123047,0.88476564 -0.363281,1.17187501 -0.243165,0.28125 -0.56836,0.421875 -0.972657,0.421875 -0.421875,0 -0.755859,-0.140625 -0.996093,-0.421875 -0.243165,-0.28710937 -0.363282,-0.6796875 -0.363282,-1.17187501 0,-0.4833984 0.120117,-0.8671875 0.363282,-1.1484375 0.249023,-0.2871094 0.580078,-0.4335937 0.996093,-0.4335937 z m -4.0429684,-2.390625 c -0.2197266,0 -0.3955079,0.099609 -0.5273438,0.2929687 -0.1259766,0.1962891 -0.1875,0.4628906 -0.1875,0.796875 0,0.3515625 0.061523,0.6269531 0.1875,0.8203125 0.1230469,0.1875 0.2988281,0.28125 0.5273438,0.28125 0.2255859,0 0.4013674,-0.09375 0.5273434,-0.28125 0.131836,-0.1933594 0.199219,-0.46875 0.199219,-0.8203125 0,-0.3339844 -0.06738,-0.6005859 -0.199219,-0.796875 -0.125976,-0.1933594 -0.3017575,-0.2929687 -0.5273434,-0.2929687 z m 3.5390624,-0.4921875 h 0.621094 l -3.65625,6.05859371 H 9.6405581 Z m -3.5390624,0 c 0.4130854,0 0.7412104,0.1464843 0.9843754,0.4335937 0.249023,0.28125 0.375,0.6650391 0.375,1.1484375 0,0.5009766 -0.125977,0.890625 -0.375,1.171875 -0.243165,0.28125 -0.57129,0.421875 -0.9843754,0.421875 -0.4160157,0 -0.7441407,-0.140625 -0.984375,-0.421875 -0.234375,-0.2871094 -0.3515625,-0.6796875 -0.3515625,-1.171875 0,-0.4833984 0.1201171,-0.8671875 0.3632812,-1.1484375 0.2402344,-0.2871094 0.5654297,-0.4335937 0.9726563,-0.4335937 z m 9.9345704,0.75 v 4.54687496 h 0.960937 c 0.802735,0 1.394532,-0.18164062 1.769532,-0.55078126 0.375,-0.3662109 0.5625,-0.9404297 0.5625,-1.7226562 0,-0.788086 -0.1875,-1.3623047 -0.5625,-1.7226563 -0.375,-0.3662109 -0.966797,-0.5507812 -1.769532,-0.5507812 z M 18.90716,-5.8353992 h 1.617187 c 1.130859,0 1.962891,0.234375 2.496094,0.703125 0.530273,0.46875 0.796875,1.2070313 0.796875,2.2148438 0,1.0019531 -0.266602,1.7402343 -0.796875,2.21484371 -0.533203,0.46875 -1.365235,0.7031250025 -2.496094,0.7031250025 H 18.90716 Z m 0,0"
         style="fill:#000000;fill-opacity:1;fill-rule:nonzero;stroke:none"
         aria-label="-6% D"
         transform="matrix(1.3333333,0,0,1.3333333,66.531377,117.74358)" />
      <path
         id="path161"
         d="M 64.582,97.363 61.25,74.727"
         style="fill:#000000;fill-opacity:1;fill-rule:nonzero;stroke:#000000;stroke-width:0.999997;stroke-linecap:butt;stroke-linejoin:round;stroke-miterlimit:4;stroke-dasharray:1.99999, 0.999997;stroke-dashoffset:0;stroke-opacity:0.278736"
         transform="matrix(1.3333333,0,0,1.3333333,0,20.020533)" />
      <path
         id="path162"
         d="m 104.008,61.027 17.394,0.161"
         style="fill:#000000;fill-opacity:1;fill-rule:nonzero;stroke:#003100;stroke-width:1;stroke-linecap:butt;stroke-linejoin:round;stroke-miterlimit:4;stroke-dasharray:none;stroke-opacity:1"
         transform="matrix(1.3333333,0,0,1.3333333,0,20.020533)" />
      <path
         id="path163"
         d="m 103.008,61.02 3.027,-2.973 2,0.019 -3.027,2.973 2.972,3.027 -2,-0.019 z"
         style="fill:#003100;fill-opacity:1;fill-rule:evenodd;stroke:none"
         transform="matrix(1.3333333,0,0,1.3333333,0,20.020533)" />
      <path
         id="path164"
         d="M 0.38804394,-2.506473 H 2.4974189 v 0.6328125 H 0.38804394 Z M 6.1331611,-3.1392855 c 0.375,0.079102 0.6679688,0.2460937 0.8789063,0.5039062 0.2167969,0.2519532 0.328125,0.5625 0.328125,0.9375 0,0.5800782 -0.1992188,1.02832036 -0.5976563,1.3476563 -0.3984375,0.31347656 -0.9609375,0.46875 -1.6875,0.46875 -0.243164,0 -0.4980468,-0.02929688 -0.7617187,-0.08203125 -0.2578125,-0.046875 -0.5244141,-0.1171875 -0.796875,-0.2109375 V -0.9361605 c 0.2167969,0.12597656 0.4570312,0.22265625 0.7148437,0.29296875 0.2636719,0.0644531 0.5390625,0.09375 0.8203125,0.09375 0.4921875,0 0.8671875,-0.0966797 1.125,-0.29296875 0.2636719,-0.1933594 0.3984375,-0.4804688 0.3984375,-0.8554688 0,-0.3427734 -0.1230468,-0.609375 -0.3632812,-0.796875 C 5.9485908,-2.6881136 5.6116768,-2.787723 5.1839424,-2.787723 H 4.5042549 v -0.65625 h 0.7148437 c 0.3808594,0 0.6738282,-0.073242 0.8789063,-0.2226563 0.2109375,-0.1552734 0.3164062,-0.3808593 0.3164062,-0.6796875 0,-0.2958984 -0.1054687,-0.5214843 -0.3164062,-0.6796875 -0.2109375,-0.1640625 -0.515625,-0.2460937 -0.9140625,-0.2460937 -0.2197266,0 -0.4541016,0.023437 -0.703125,0.070312 -0.2431641,0.046875 -0.5126953,0.1171875 -0.8085938,0.2109375 v -0.703125 c 0.2958985,-0.076172 0.5742188,-0.1347656 0.8320313,-0.1757813 0.2636719,-0.046875 0.515625,-0.070312 0.75,-0.070312 0.6005859,0 1.0722656,0.1376954 1.4179687,0.4101563 0.3515625,0.2753906 0.5273438,0.6416016 0.5273438,1.1015625 0,0.328125 -0.09375,0.6064453 -0.28125,0.8320312 -0.1816406,0.2197266 -0.4423828,0.3720704 -0.7851563,0.4570313 z M 10.518903,-5.318973 c -0.407226,0 -0.7119137,0.2050781 -0.9140622,0.609375 -0.2050781,0.3984375 -0.3046875,1.0019531 -0.3046875,1.8046875 0,0.796875 0.099609,1.3945312 0.3046875,1.7929687 0.2021485,0.39843755 0.5068362,0.5976563 0.9140622,0.5976563 0.404297,0 0.708985,-0.19921875 0.914063,-0.5976563 0.210937,-0.3984375 0.316406,-0.9960937 0.316406,-1.7929687 0,-0.8027344 -0.105469,-1.40625 -0.316406,-1.8046875 -0.205078,-0.4042969 -0.509766,-0.609375 -0.914063,-0.609375 z m 0,-0.6210938 c 0.65625,0 1.154297,0.2578125 1.5,0.7734375 0.342774,0.515625 0.515625,1.2714844 0.515625,2.2617188 0,0.9785156 -0.172851,1.7285156 -0.515625,2.25 -0.345703,0.515625 -0.84375,0.7734375 -1.5,0.7734375 -0.6562497,0 -1.1572262,-0.2578125 -1.4999997,-0.7734375 -0.3457031,-0.5214844 -0.515625,-1.2714844 -0.515625,-2.25 0,-0.9902344 0.1699219,-1.7460938 0.515625,-2.2617188 0.3427735,-0.515625 0.84375,-0.7734375 1.4999997,-0.7734375 z m 8.373047,3.375 c -0.228515,0 -0.407226,0.099609 -0.539062,0.2929688 -0.125977,0.1875 -0.1875,0.4541016 -0.1875,0.796875 0,0.3457031 0.06152,0.61523437 0.1875,0.80859375 0.131836,0.1875 0.310547,0.28125 0.539062,0.28125 0.216797,0 0.389649,-0.09375 0.515625,-0.28125 0.131836,-0.19335938 0.199219,-0.46289065 0.199219,-0.80859375 0,-0.3339844 -0.06738,-0.6005859 -0.199219,-0.796875 -0.125976,-0.1933594 -0.298828,-0.2929688 -0.515625,-0.2929688 z m 0,-0.4921875 c 0.404297,0 0.729492,0.1464844 0.972656,0.4335938 0.240235,0.28125 0.363282,0.6650391 0.363282,1.1484375 0,0.4921875 -0.123047,0.88476562 -0.363282,1.171875 -0.243164,0.28125 -0.568359,0.421875 -0.972656,0.421875 -0.421875,0 -0.755859,-0.140625 -0.996094,-0.421875 -0.243164,-0.28710938 -0.363281,-0.6796875 -0.363281,-1.171875 0,-0.4833984 0.120117,-0.8671875 0.363281,-1.1484375 0.249024,-0.2871094 0.580079,-0.4335938 0.996094,-0.4335938 z m -4.042969,-2.390625 c -0.219726,0 -0.395507,0.099609 -0.527343,0.2929688 -0.125977,0.1962891 -0.1875,0.4628906 -0.1875,0.796875 0,0.3515625 0.06152,0.6269531 0.1875,0.8203125 0.123047,0.1875 0.298828,0.28125 0.527343,0.28125 0.225586,0 0.401368,-0.09375 0.527344,-0.28125 0.131836,-0.1933594 0.199219,-0.46875 0.199219,-0.8203125 0,-0.3339844 -0.06738,-0.6005859 -0.199219,-0.796875 -0.125976,-0.1933594 -0.301758,-0.2929688 -0.527344,-0.2929688 z m 3.539063,-0.4921875 h 0.621094 l -3.65625,6.0585938 h -0.621094 z m -3.539063,0 c 0.413086,0 0.741211,0.1464844 0.984375,0.4335938 0.249024,0.28125 0.375,0.6650391 0.375,1.1484375 0,0.5009766 -0.125976,0.890625 -0.375,1.171875 -0.243164,0.28125 -0.571289,0.421875 -0.984375,0.421875 -0.416015,0 -0.74414,-0.140625 -0.984375,-0.421875 -0.234375,-0.2871094 -0.351562,-0.6796875 -0.351562,-1.171875 0,-0.4833984 0.120117,-0.8671875 0.363281,-1.1484375 0.240235,-0.2871094 0.56543,-0.4335938 0.972656,-0.4335938 z m 9.931641,0.75 v 4.54687505 h 0.960938 c 0.802734,0 1.394531,-0.18164063 1.769531,-0.55078125 0.375,-0.3662109 0.5625,-0.9404297 0.5625,-1.7226563 0,-0.7880859 -0.1875,-1.3623046 -0.5625,-1.7226562 -0.375,-0.3662109 -0.966797,-0.5507813 -1.769531,-0.5507813 z M 23.995466,-5.834598 h 1.617187 c 1.13086,0 1.962891,0.234375 2.496094,0.703125 0.530273,0.46875 0.796875,1.2070312 0.796875,2.2148437 0,1.0019532 -0.266602,1.7402344 -0.796875,2.2148438 -0.533203,0.46875 -1.365234,0.703125 -2.496094,0.703125 h -1.617187 z m 0,0"
         style="fill:#000000;fill-opacity:1;fill-rule:nonzero;stroke:none"
         aria-label="-30% D"
         transform="matrix(1.3333333,0,0,1.3333333,131.71963,68.902664)" />
      <path
         id="path165"
         d="M 112.703,61.105 110.559,36.66"
         style="fill:#000000;fill-opacity:1;fill-rule:nonzero;stroke:#000000;stroke-width:0.999997;stroke-linecap:butt;stroke-linejoin:round;stroke-miterlimit:4;stroke-dasharray:1.99999, 0.999997;stroke-dashoffset:0;stroke-opacity:0.278736"
         transform="matrix(1.3333333,0,0,1.3333333,0,20.020533)" />
    </g>
  </g>
</svg>
